<svg xmlns="http://www.w3.org/2000/svg" viewBox="0 0 500 500"><g id="freepik--background-complete--inject-7"><rect y="382.4" width="500" height="0.25" style="fill:#ebebeb"></rect><rect x="416.78" y="398.49" width="33.12" height="0.25" style="fill:#ebebeb"></rect><rect x="322.53" y="401.21" width="8.69" height="0.25" style="fill:#ebebeb"></rect><rect x="396.59" y="389.21" width="19.19" height="0.25" style="fill:#ebebeb"></rect><rect x="52.46" y="390.89" width="43.19" height="0.25" style="fill:#ebebeb"></rect><rect x="104.56" y="390.89" width="6.33" height="0.25" style="fill:#ebebeb"></rect><rect x="131.47" y="395.11" width="93.68" height="0.25" style="fill:#ebebeb"></rect><path d="M237,337.8H43.91a5.71,5.71,0,0,1-5.7-5.71V60.66A5.71,5.71,0,0,1,43.91,55H237a5.71,5.71,0,0,1,5.71,5.71V332.09A5.71,5.71,0,0,1,237,337.8ZM43.91,55.2a5.46,5.46,0,0,0-5.45,5.46V332.09a5.46,5.46,0,0,0,5.45,5.46H237a5.47,5.47,0,0,0,5.46-5.46V60.66A5.47,5.47,0,0,0,237,55.2Z" style="fill:#ebebeb"></path><path d="M453.31,337.8H260.21a5.72,5.72,0,0,1-5.71-5.71V60.66A5.72,5.72,0,0,1,260.21,55h193.1A5.71,5.71,0,0,1,459,60.66V332.09A5.71,5.71,0,0,1,453.31,337.8ZM260.21,55.2a5.47,5.47,0,0,0-5.46,5.46V332.09a5.47,5.47,0,0,0,5.46,5.46h193.1a5.47,5.47,0,0,0,5.46-5.46V60.66a5.47,5.47,0,0,0-5.46-5.46Z" style="fill:#ebebeb"></path><path d="M79.24,167a8.5,8.5,0,0,1,11-8.15,18.9,18.9,0,0,1-.19-2.62,18,18,0,0,1,18-18,18.22,18.22,0,0,1,3.32.31,15.74,15.74,0,0,1,29.2,8l.27,0a14.52,14.52,0,1,1,0,29H87.51A8.51,8.51,0,0,1,79.24,167Z" style="fill:#f0f0f0"></path><path d="M363.15,164.6a5.43,5.43,0,0,1,5.43-5.44,5.35,5.35,0,0,1,1.56.23,11.51,11.51,0,0,1,11.39-13.17,12.38,12.38,0,0,1,2.12.19,10.05,10.05,0,0,1,18.64,5.09h.17a9.27,9.27,0,1,1,0,18.54h-34A5.42,5.42,0,0,1,363.15,164.6Z" style="fill:#f0f0f0"></path><path d="M242.86,98.05a3.33,3.33,0,0,1,3.33-3.33,3.43,3.43,0,0,1,1,.14,6.8,6.8,0,0,1-.08-1,7.05,7.05,0,0,1,7.05-7,8,8,0,0,1,1.3.12A6.16,6.16,0,0,1,266.84,90h.1a5.68,5.68,0,1,1,0,11.36H246.1A3.33,3.33,0,0,1,242.86,98.05Z" style="fill:#f0f0f0"></path><polygon points="235.66 317.25 136.09 90.34 99.67 101.38 232.6 320.24 235.66 317.25" style="fill:#f5f5f5"></polygon><ellipse cx="117.95" cy="95.6" rx="18.94" ry="6.89" transform="translate(-23.69 40.92) rotate(-17.91)" style="fill:#fafafa"></ellipse><polygon points="259.68 317.25 359.25 90.34 395.68 101.38 262.74 320.24 259.68 317.25" style="fill:#f5f5f5"></polygon><ellipse cx="377.39" cy="95.6" rx="6.89" ry="18.94" transform="matrix(0.31, -0.95, 0.95, 0.31, 170.34, 425.29)" style="fill:#fafafa"></ellipse><polygon points="445.84 381.93 445.84 332.54 441.62 332.54 441.62 309.01 435.45 309.01 435.45 227.19 426.52 227.19 426.52 216.63 407.47 207.74 407.47 197.1 404.83 197.1 404.83 227.19 401.14 227.19 401.14 309.01 397.44 309.01 397.44 265.99 387.41 265.99 387.41 243.81 384.61 243.81 384.61 309.01 377 309.01 377 284.2 371.98 284.2 371.98 277.86 360.37 277.86 360.37 256.22 354.01 256.22 354.01 240.91 346.19 240.91 346.19 218.61 343.4 218.61 343.4 240.91 335.58 240.91 335.58 256.22 329.22 256.22 329.22 277.86 317.61 277.86 317.61 284.2 312.6 284.2 312.6 309.01 306.65 309.01 306.65 277.86 295.04 277.86 295.04 210.82 291.34 210.82 291.34 203.43 266.53 203.43 266.53 210.82 261.25 210.82 261.25 259.39 240.14 259.39 240.14 264.14 232.22 264.14 232.22 267.83 240.14 267.83 240.14 286.84 217.97 286.84 217.97 223.49 213.22 223.49 213.22 210.03 202.92 210.03 202.92 162.26 200.02 162.26 200.02 210.03 192.63 210.03 192.63 223.49 149.31 223.49 149.31 219.06 146.67 219.06 146.67 249.15 142.97 249.15 142.97 249.68 140.75 249.68 140.75 279.77 137.06 279.77 137.06 287.95 129.25 287.95 129.25 265.78 126.45 265.78 126.45 318.56 123.33 318.56 123.33 296.39 120.53 296.39 120.53 330.97 118.83 330.97 118.83 306.16 113.82 306.16 113.82 299.82 102.2 299.82 102.2 278.18 95.84 278.18 95.84 262.87 88.03 262.87 88.03 240.57 85.24 240.57 85.24 262.87 77.42 262.87 77.42 278.18 71.06 278.18 71.06 299.82 59.45 299.82 59.45 306.16 54.43 306.16 54.43 330.44 53.53 330.44 53.53 330.97 51.05 330.97 51.05 381.93 445.84 381.93" style="fill:#e6e6e6"></polygon><rect x="173.48" y="226.45" width="2.99" height="2.99" style="fill:#f0f0f0"></rect><rect x="173.48" y="231.47" width="2.99" height="2.99" style="fill:#f0f0f0"></rect><rect x="173.48" y="251.53" width="2.99" height="2.99" style="fill:#f0f0f0"></rect><rect x="173.48" y="256.54" width="2.99" height="2.99" style="fill:#f0f0f0"></rect><rect x="173.48" y="261.55" width="2.99" height="2.99" style="fill:#f0f0f0"></rect><rect x="173.48" y="276.6" width="2.99" height="2.99" style="fill:#f0f0f0"></rect><rect x="173.48" y="281.61" width="2.99" height="2.99" style="fill:#f0f0f0"></rect><rect x="178.23" y="246.51" width="2.99" height="2.99" style="fill:#f0f0f0"></rect><rect x="178.23" y="251.53" width="2.99" height="2.99" style="fill:#f0f0f0"></rect><rect x="178.23" y="256.54" width="2.99" height="2.99" style="fill:#f0f0f0"></rect><rect x="178.23" y="261.55" width="2.99" height="2.99" style="fill:#f0f0f0"></rect><rect x="178.23" y="266.57" width="2.99" height="2.99" style="fill:#f0f0f0"></rect><rect x="178.23" y="276.6" width="2.99" height="2.99" style="fill:#f0f0f0"></rect><rect x="178.23" y="281.61" width="2.99" height="2.99" style="fill:#f0f0f0"></rect><rect x="182.98" y="226.45" width="2.99" height="2.99" style="fill:#f0f0f0"></rect><rect x="182.98" y="231.47" width="2.99" height="2.99" style="fill:#f0f0f0"></rect><rect x="182.98" y="236.48" width="2.99" height="2.99" style="fill:#f0f0f0"></rect><rect x="182.98" y="241.5" width="2.99" height="2.99" style="fill:#f0f0f0"></rect><rect x="182.98" y="246.51" width="2.99" height="2.99" style="fill:#f0f0f0"></rect><rect x="182.98" y="251.53" width="2.99" height="2.99" style="fill:#f0f0f0"></rect><rect x="182.98" y="256.54" width="2.99" height="2.99" style="fill:#f0f0f0"></rect><rect x="182.98" y="261.55" width="2.99" height="2.99" style="fill:#f0f0f0"></rect><rect x="182.98" y="266.57" width="2.99" height="2.99" style="fill:#f0f0f0"></rect><rect x="182.98" y="271.58" width="2.99" height="2.99" style="fill:#f0f0f0"></rect><rect x="182.98" y="281.61" width="2.99" height="2.99" style="fill:#f0f0f0"></rect><rect x="187.73" y="226.45" width="2.99" height="2.99" style="fill:#f0f0f0"></rect><rect x="187.73" y="231.47" width="2.99" height="2.99" style="fill:#f0f0f0"></rect><rect x="187.73" y="236.48" width="2.99" height="2.99" style="fill:#f0f0f0"></rect><rect x="187.73" y="241.5" width="2.99" height="2.99" style="fill:#f0f0f0"></rect><rect x="187.73" y="246.51" width="2.99" height="2.99" style="fill:#f0f0f0"></rect><rect x="187.73" y="251.53" width="2.99" height="2.99" style="fill:#f0f0f0"></rect><rect x="187.73" y="256.54" width="2.99" height="2.99" style="fill:#f0f0f0"></rect><rect x="187.73" y="301.67" width="2.99" height="2.99" style="fill:#f0f0f0"></rect><rect x="192.48" y="226.45" width="2.99" height="2.99" style="fill:#f0f0f0"></rect><rect x="192.48" y="231.47" width="2.99" height="2.99" style="fill:#f0f0f0"></rect><rect x="192.48" y="236.48" width="2.99" height="2.99" style="fill:#f0f0f0"></rect><rect x="192.48" y="241.5" width="2.99" height="2.99" style="fill:#f0f0f0"></rect><rect x="192.48" y="246.51" width="2.99" height="2.99" style="fill:#f0f0f0"></rect><rect x="192.48" y="251.53" width="2.99" height="2.99" style="fill:#f0f0f0"></rect><rect x="192.48" y="256.54" width="2.99" height="2.99" style="fill:#f0f0f0"></rect><rect x="192.48" y="261.55" width="2.99" height="2.99" style="fill:#f0f0f0"></rect><rect x="192.48" y="291.64" width="2.99" height="2.99" style="fill:#f0f0f0"></rect><rect x="192.48" y="296.66" width="2.99" height="2.99" style="fill:#f0f0f0"></rect><rect x="192.48" y="301.67" width="2.99" height="2.99" style="fill:#f0f0f0"></rect><rect x="192.48" y="306.69" width="2.99" height="2.99" style="fill:#f0f0f0"></rect><rect x="192.48" y="326.75" width="2.99" height="2.99" style="fill:#f0f0f0"></rect><rect x="197.23" y="226.45" width="2.99" height="2.99" style="fill:#f0f0f0"></rect><rect x="197.23" y="231.47" width="2.99" height="2.99" style="fill:#f0f0f0"></rect><rect x="197.23" y="236.48" width="2.99" height="2.99" style="fill:#f0f0f0"></rect><rect x="197.23" y="241.5" width="2.99" height="2.99" style="fill:#f0f0f0"></rect><rect x="197.23" y="246.51" width="2.99" height="2.99" style="fill:#f0f0f0"></rect><rect x="197.23" y="251.53" width="2.99" height="2.99" style="fill:#f0f0f0"></rect><rect x="197.23" y="256.54" width="2.99" height="2.99" style="fill:#f0f0f0"></rect><rect x="197.23" y="261.55" width="2.99" height="2.99" style="fill:#f0f0f0"></rect><rect x="197.23" y="266.57" width="2.99" height="2.99" style="fill:#f0f0f0"></rect><rect x="197.23" y="271.58" width="2.99" height="2.99" style="fill:#f0f0f0"></rect><rect x="197.23" y="286.63" width="2.99" height="2.99" style="fill:#f0f0f0"></rect><rect x="197.23" y="291.64" width="2.99" height="2.99" style="fill:#f0f0f0"></rect><rect x="197.23" y="296.66" width="2.99" height="2.99" style="fill:#f0f0f0"></rect><rect x="197.23" y="301.67" width="2.99" height="2.99" style="fill:#f0f0f0"></rect><rect x="197.23" y="306.69" width="2.99" height="2.99" style="fill:#f0f0f0"></rect><rect x="197.23" y="326.75" width="2.99" height="2.99" style="fill:#f0f0f0"></rect><rect x="201.98" y="226.45" width="2.99" height="2.99" style="fill:#f0f0f0"></rect><rect x="201.98" y="231.47" width="2.99" height="2.99" style="fill:#f0f0f0"></rect><rect x="201.98" y="236.48" width="2.99" height="2.99" style="fill:#f0f0f0"></rect><rect x="201.98" y="241.5" width="2.99" height="2.99" style="fill:#f0f0f0"></rect><rect x="201.98" y="246.51" width="2.99" height="2.99" style="fill:#f0f0f0"></rect><rect x="201.98" y="251.53" width="2.99" height="2.99" style="fill:#f0f0f0"></rect><rect x="201.98" y="256.54" width="2.99" height="2.99" style="fill:#f0f0f0"></rect><rect x="201.98" y="261.55" width="2.99" height="2.99" style="fill:#f0f0f0"></rect><rect x="201.98" y="266.57" width="2.99" height="2.99" style="fill:#f0f0f0"></rect><rect x="201.98" y="271.58" width="2.99" height="2.99" style="fill:#f0f0f0"></rect><rect x="201.98" y="276.6" width="2.99" height="2.99" style="fill:#f0f0f0"></rect><rect x="201.98" y="281.61" width="2.99" height="2.99" style="fill:#f0f0f0"></rect><rect x="201.98" y="286.63" width="2.99" height="2.99" style="fill:#f0f0f0"></rect><rect x="201.98" y="291.64" width="2.99" height="2.99" style="fill:#f0f0f0"></rect><rect x="201.98" y="296.66" width="2.99" height="2.99" style="fill:#f0f0f0"></rect><rect x="201.98" y="301.67" width="2.99" height="2.99" style="fill:#f0f0f0"></rect><rect x="201.98" y="306.69" width="2.99" height="2.99" style="fill:#f0f0f0"></rect><rect x="201.98" y="311.7" width="2.99" height="2.99" style="fill:#f0f0f0"></rect><rect x="206.73" y="226.45" width="2.99" height="2.99" style="fill:#f0f0f0"></rect><rect x="206.73" y="231.47" width="2.99" height="2.99" style="fill:#f0f0f0"></rect><rect x="206.73" y="236.48" width="2.99" height="2.99" style="fill:#f0f0f0"></rect><rect x="206.73" y="241.5" width="2.99" height="2.99" style="fill:#f0f0f0"></rect><rect x="206.73" y="246.51" width="2.99" height="2.99" style="fill:#f0f0f0"></rect><rect x="206.73" y="251.53" width="2.99" height="2.99" style="fill:#f0f0f0"></rect><rect x="206.73" y="256.54" width="2.99" height="2.99" style="fill:#f0f0f0"></rect><rect x="206.73" y="261.55" width="2.99" height="2.99" style="fill:#f0f0f0"></rect><rect x="206.73" y="266.57" width="2.99" height="2.99" style="fill:#f0f0f0"></rect><rect x="206.73" y="271.58" width="2.99" height="2.99" style="fill:#f0f0f0"></rect><rect x="206.73" y="286.63" width="2.99" height="2.99" style="fill:#f0f0f0"></rect><rect x="206.73" y="291.64" width="2.99" height="2.99" style="fill:#f0f0f0"></rect><rect x="206.73" y="296.66" width="2.99" height="2.99" style="fill:#f0f0f0"></rect><rect x="206.73" y="301.67" width="2.99" height="2.99" style="fill:#f0f0f0"></rect><rect x="211.49" y="226.45" width="2.99" height="2.99" style="fill:#f0f0f0"></rect><rect x="211.49" y="231.47" width="2.99" height="2.99" style="fill:#f0f0f0"></rect><rect x="211.49" y="236.48" width="2.99" height="2.99" style="fill:#f0f0f0"></rect><rect x="211.49" y="241.5" width="2.99" height="2.99" style="fill:#f0f0f0"></rect><rect x="211.49" y="246.51" width="2.99" height="2.99" style="fill:#f0f0f0"></rect><rect x="211.49" y="251.53" width="2.99" height="2.99" style="fill:#f0f0f0"></rect><rect x="211.49" y="256.54" width="2.99" height="2.99" style="fill:#f0f0f0"></rect><rect x="211.49" y="261.55" width="2.99" height="2.99" style="fill:#f0f0f0"></rect><rect x="211.49" y="266.57" width="2.99" height="2.99" style="fill:#f0f0f0"></rect><rect x="211.49" y="271.58" width="2.99" height="2.99" style="fill:#f0f0f0"></rect><rect x="211.49" y="286.63" width="2.99" height="2.99" style="fill:#f0f0f0"></rect><rect x="211.49" y="291.64" width="2.99" height="2.99" style="fill:#f0f0f0"></rect><rect x="211.49" y="296.66" width="2.99" height="2.99" style="fill:#f0f0f0"></rect><rect x="264.97" y="213.43" width="2.99" height="2.99" style="fill:#f0f0f0"></rect><rect x="264.97" y="218.45" width="2.99" height="2.99" style="fill:#f0f0f0"></rect><rect x="264.97" y="223.46" width="2.99" height="2.99" style="fill:#f0f0f0"></rect><rect x="264.97" y="228.48" width="2.99" height="2.99" style="fill:#f0f0f0"></rect><rect x="264.97" y="233.49" width="2.99" height="2.99" style="fill:#f0f0f0"></rect><rect x="264.97" y="238.5" width="2.99" height="2.99" style="fill:#f0f0f0"></rect><rect x="264.97" y="243.52" width="2.99" height="2.99" style="fill:#f0f0f0"></rect><rect x="264.97" y="248.53" width="2.99" height="2.99" style="fill:#f0f0f0"></rect><rect x="264.97" y="263.58" width="2.99" height="2.99" style="fill:#f0f0f0"></rect><rect x="264.97" y="268.59" width="2.99" height="2.99" style="fill:#f0f0f0"></rect><rect x="269.73" y="213.43" width="2.99" height="2.99" style="fill:#f0f0f0"></rect><rect x="269.73" y="218.45" width="2.99" height="2.99" style="fill:#f0f0f0"></rect><rect x="269.73" y="223.46" width="2.99" height="2.99" style="fill:#f0f0f0"></rect><rect x="269.73" y="228.48" width="2.99" height="2.99" style="fill:#f0f0f0"></rect><rect x="269.73" y="233.49" width="2.99" height="2.99" style="fill:#f0f0f0"></rect><rect x="269.73" y="238.5" width="2.99" height="2.99" style="fill:#f0f0f0"></rect><rect x="269.73" y="243.52" width="2.99" height="2.99" style="fill:#f0f0f0"></rect><rect x="269.73" y="248.53" width="2.99" height="2.99" style="fill:#f0f0f0"></rect><rect x="269.73" y="268.59" width="2.99" height="2.99" style="fill:#f0f0f0"></rect><rect x="274.48" y="213.43" width="2.99" height="2.99" style="fill:#f0f0f0"></rect><rect x="274.48" y="218.45" width="2.99" height="2.99" style="fill:#f0f0f0"></rect><rect x="274.48" y="223.46" width="2.99" height="2.99" style="fill:#f0f0f0"></rect><rect x="274.48" y="228.48" width="2.99" height="2.99" style="fill:#f0f0f0"></rect><rect x="274.48" y="233.49" width="2.99" height="2.99" style="fill:#f0f0f0"></rect><rect x="274.48" y="238.5" width="2.99" height="2.99" style="fill:#f0f0f0"></rect><rect x="274.48" y="243.52" width="2.99" height="2.99" style="fill:#f0f0f0"></rect><rect x="274.48" y="248.53" width="2.99" height="2.99" style="fill:#f0f0f0"></rect><rect x="279.23" y="213.43" width="2.99" height="2.99" style="fill:#f0f0f0"></rect><rect x="279.23" y="218.45" width="2.99" height="2.99" style="fill:#f0f0f0"></rect><rect x="279.23" y="223.46" width="2.99" height="2.99" style="fill:#f0f0f0"></rect><rect x="279.23" y="228.48" width="2.99" height="2.99" style="fill:#f0f0f0"></rect><rect x="279.23" y="233.49" width="2.99" height="2.99" style="fill:#f0f0f0"></rect><rect x="279.23" y="238.5" width="2.99" height="2.99" style="fill:#f0f0f0"></rect><rect x="279.23" y="248.53" width="2.99" height="2.99" style="fill:#f0f0f0"></rect><rect x="279.23" y="253.55" width="2.99" height="2.99" style="fill:#f0f0f0"></rect><rect x="279.23" y="268.59" width="2.99" height="2.99" style="fill:#f0f0f0"></rect><rect x="279.23" y="273.61" width="2.99" height="2.99" style="fill:#f0f0f0"></rect><rect x="279.23" y="278.62" width="2.99" height="2.99" style="fill:#f0f0f0"></rect><rect x="279.23" y="283.64" width="2.99" height="2.99" style="fill:#f0f0f0"></rect><rect x="279.23" y="288.65" width="2.99" height="2.99" style="fill:#f0f0f0"></rect><rect x="279.23" y="293.67" width="2.99" height="2.99" style="fill:#f0f0f0"></rect><rect x="279.23" y="298.68" width="2.99" height="2.99" style="fill:#f0f0f0"></rect><rect x="283.98" y="213.43" width="2.99" height="2.99" style="fill:#f0f0f0"></rect><rect x="283.98" y="218.45" width="2.99" height="2.99" style="fill:#f0f0f0"></rect><rect x="283.98" y="223.46" width="2.99" height="2.99" style="fill:#f0f0f0"></rect><rect x="283.98" y="228.48" width="2.99" height="2.99" style="fill:#f0f0f0"></rect><rect x="283.98" y="233.49" width="2.99" height="2.99" style="fill:#f0f0f0"></rect><rect x="283.98" y="238.5" width="2.99" height="2.99" style="fill:#f0f0f0"></rect><rect x="283.98" y="253.55" width="2.99" height="2.99" style="fill:#f0f0f0"></rect><rect x="283.98" y="258.56" width="2.99" height="2.99" style="fill:#f0f0f0"></rect><rect x="283.98" y="263.58" width="2.99" height="2.99" style="fill:#f0f0f0"></rect><rect x="283.98" y="268.59" width="2.99" height="2.99" style="fill:#f0f0f0"></rect><rect x="283.98" y="273.61" width="2.99" height="2.99" style="fill:#f0f0f0"></rect><rect x="283.98" y="278.62" width="2.99" height="2.99" style="fill:#f0f0f0"></rect><rect x="283.98" y="283.64" width="2.99" height="2.99" style="fill:#f0f0f0"></rect><rect x="283.98" y="288.65" width="2.99" height="2.99" style="fill:#f0f0f0"></rect><rect x="283.98" y="293.67" width="2.99" height="2.99" style="fill:#f0f0f0"></rect><rect x="283.98" y="298.68" width="2.99" height="2.99" style="fill:#f0f0f0"></rect><rect x="283.98" y="303.7" width="2.99" height="2.99" style="fill:#f0f0f0"></rect><rect x="283.98" y="313.73" width="2.99" height="2.99" style="fill:#f0f0f0"></rect><rect x="288.73" y="213.43" width="2.99" height="2.99" style="fill:#f0f0f0"></rect><rect x="288.73" y="218.45" width="2.99" height="2.99" style="fill:#f0f0f0"></rect><rect x="288.73" y="223.46" width="2.99" height="2.99" style="fill:#f0f0f0"></rect><rect x="288.73" y="228.48" width="2.99" height="2.99" style="fill:#f0f0f0"></rect><rect x="288.73" y="233.49" width="2.99" height="2.99" style="fill:#f0f0f0"></rect><rect x="288.73" y="238.5" width="2.99" height="2.99" style="fill:#f0f0f0"></rect><rect x="288.73" y="253.55" width="2.99" height="2.99" style="fill:#f0f0f0"></rect><rect x="288.73" y="258.56" width="2.99" height="2.99" style="fill:#f0f0f0"></rect><rect x="288.73" y="263.58" width="2.99" height="2.99" style="fill:#f0f0f0"></rect><rect x="288.73" y="268.59" width="2.99" height="2.99" style="fill:#f0f0f0"></rect><rect x="288.73" y="283.64" width="2.99" height="2.99" style="fill:#f0f0f0"></rect><rect x="288.73" y="288.65" width="2.99" height="2.99" style="fill:#f0f0f0"></rect><rect x="288.73" y="293.67" width="2.99" height="2.99" style="fill:#f0f0f0"></rect><rect x="288.73" y="298.68" width="2.99" height="2.99" style="fill:#f0f0f0"></rect><rect x="288.73" y="303.7" width="2.99" height="2.99" style="fill:#f0f0f0"></rect><rect x="288.73" y="313.73" width="2.99" height="2.99" style="fill:#f0f0f0"></rect><rect x="288.73" y="318.74" width="2.99" height="2.99" style="fill:#f0f0f0"></rect><rect x="331.84" y="260.06" width="2.99" height="2.99" style="fill:#f0f0f0"></rect><rect x="331.84" y="265.07" width="2.99" height="2.99" style="fill:#f0f0f0"></rect><rect x="331.84" y="270.09" width="2.99" height="2.99" style="fill:#f0f0f0"></rect><rect x="331.84" y="275.1" width="2.99" height="2.99" style="fill:#f0f0f0"></rect><rect x="331.84" y="280.12" width="2.99" height="2.99" style="fill:#f0f0f0"></rect><rect x="331.84" y="285.13" width="2.99" height="2.99" style="fill:#f0f0f0"></rect><rect x="331.84" y="290.15" width="2.99" height="2.99" style="fill:#f0f0f0"></rect><rect x="331.84" y="305.19" width="2.99" height="2.99" style="fill:#f0f0f0"></rect><rect x="331.84" y="310.21" width="2.99" height="2.99" style="fill:#f0f0f0"></rect><rect x="331.84" y="315.22" width="2.99" height="2.99" style="fill:#f0f0f0"></rect><rect x="336.59" y="260.06" width="2.99" height="2.99" style="fill:#f0f0f0"></rect><rect x="336.59" y="265.07" width="2.99" height="2.99" style="fill:#f0f0f0"></rect><rect x="336.59" y="270.09" width="2.99" height="2.99" style="fill:#f0f0f0"></rect><rect x="336.59" y="275.1" width="2.99" height="2.99" style="fill:#f0f0f0"></rect><rect x="336.59" y="280.12" width="2.99" height="2.99" style="fill:#f0f0f0"></rect><rect x="336.59" y="285.13" width="2.99" height="2.99" style="fill:#f0f0f0"></rect><rect x="336.59" y="290.15" width="2.99" height="2.99" style="fill:#f0f0f0"></rect><rect x="341.34" y="260.06" width="2.99" height="2.99" style="fill:#f0f0f0"></rect><rect x="341.34" y="265.07" width="2.99" height="2.99" style="fill:#f0f0f0"></rect><rect x="341.34" y="270.09" width="2.99" height="2.99" style="fill:#f0f0f0"></rect><rect x="341.34" y="275.1" width="2.99" height="2.99" style="fill:#f0f0f0"></rect><rect x="341.34" y="280.12" width="2.99" height="2.99" style="fill:#f0f0f0"></rect><rect x="341.34" y="285.13" width="2.99" height="2.99" style="fill:#f0f0f0"></rect><rect x="341.34" y="290.15" width="2.99" height="2.99" style="fill:#f0f0f0"></rect><rect x="346.09" y="260.06" width="2.99" height="2.99" style="fill:#f0f0f0"></rect><rect x="346.09" y="265.07" width="2.99" height="2.99" style="fill:#f0f0f0"></rect><rect x="346.09" y="270.09" width="2.99" height="2.99" style="fill:#f0f0f0"></rect><rect x="346.09" y="275.1" width="2.99" height="2.99" style="fill:#f0f0f0"></rect><rect x="346.09" y="280.12" width="2.99" height="2.99" style="fill:#f0f0f0"></rect><rect x="346.09" y="285.13" width="2.99" height="2.99" style="fill:#f0f0f0"></rect><rect x="346.09" y="290.15" width="2.99" height="2.99" style="fill:#f0f0f0"></rect><rect x="346.09" y="295.16" width="2.99" height="2.99" style="fill:#f0f0f0"></rect><rect x="346.09" y="300.18" width="2.99" height="2.99" style="fill:#f0f0f0"></rect><rect x="346.09" y="305.19" width="2.99" height="2.99" style="fill:#f0f0f0"></rect><rect x="346.09" y="310.21" width="2.99" height="2.99" style="fill:#f0f0f0"></rect><rect x="350.84" y="260.06" width="2.99" height="2.99" style="fill:#f0f0f0"></rect><rect x="350.84" y="265.07" width="2.99" height="2.99" style="fill:#f0f0f0"></rect><rect x="350.84" y="270.09" width="2.99" height="2.99" style="fill:#f0f0f0"></rect><rect x="350.84" y="275.1" width="2.99" height="2.99" style="fill:#f0f0f0"></rect><rect x="350.84" y="280.12" width="2.99" height="2.99" style="fill:#f0f0f0"></rect><rect x="350.84" y="285.13" width="2.99" height="2.99" style="fill:#f0f0f0"></rect><rect x="350.84" y="290.15" width="2.99" height="2.99" style="fill:#f0f0f0"></rect><rect x="350.84" y="295.16" width="2.99" height="2.99" style="fill:#f0f0f0"></rect><rect x="350.84" y="300.18" width="2.99" height="2.99" style="fill:#f0f0f0"></rect><rect x="350.84" y="305.19" width="2.99" height="2.99" style="fill:#f0f0f0"></rect><rect x="350.84" y="310.21" width="2.99" height="2.99" style="fill:#f0f0f0"></rect><rect x="350.84" y="315.22" width="2.99" height="2.99" style="fill:#f0f0f0"></rect><rect x="350.84" y="330.27" width="2.99" height="2.99" style="fill:#f0f0f0"></rect><rect x="350.84" y="335.28" width="2.99" height="2.99" style="fill:#f0f0f0"></rect><rect x="355.59" y="260.06" width="2.99" height="2.99" style="fill:#f0f0f0"></rect><rect x="355.59" y="265.07" width="2.99" height="2.99" style="fill:#f0f0f0"></rect><rect x="355.59" y="270.09" width="2.99" height="2.99" style="fill:#f0f0f0"></rect><rect x="355.59" y="285.13" width="2.99" height="2.99" style="fill:#f0f0f0"></rect><rect x="355.59" y="290.15" width="2.99" height="2.99" style="fill:#f0f0f0"></rect><rect x="355.59" y="295.16" width="2.99" height="2.99" style="fill:#f0f0f0"></rect><rect x="355.59" y="300.18" width="2.99" height="2.99" style="fill:#f0f0f0"></rect><rect x="355.59" y="305.19" width="2.99" height="2.99" style="fill:#f0f0f0"></rect><rect x="355.59" y="310.21" width="2.99" height="2.99" style="fill:#f0f0f0"></rect><rect x="355.59" y="315.22" width="2.99" height="2.99" style="fill:#f0f0f0"></rect><rect x="355.59" y="330.27" width="2.99" height="2.99" style="fill:#f0f0f0"></rect><rect x="355.59" y="335.28" width="2.99" height="2.99" style="fill:#f0f0f0"></rect><rect x="355.59" y="340.29" width="2.99" height="2.99" style="fill:#f0f0f0"></rect><rect x="405.39" y="229.97" width="2.99" height="2.99" style="fill:#f0f0f0"></rect><rect x="405.39" y="234.99" width="2.99" height="2.99" style="fill:#f0f0f0"></rect><rect x="405.39" y="240" width="2.99" height="2.99" style="fill:#f0f0f0"></rect><rect x="405.39" y="245.02" width="2.99" height="2.99" style="fill:#f0f0f0"></rect><rect x="405.39" y="250.03" width="2.99" height="2.99" style="fill:#f0f0f0"></rect><rect x="405.39" y="255.04" width="2.99" height="2.99" style="fill:#f0f0f0"></rect><rect x="405.39" y="260.06" width="2.99" height="2.99" style="fill:#f0f0f0"></rect><rect x="405.39" y="265.07" width="2.99" height="2.99" style="fill:#f0f0f0"></rect><rect x="405.39" y="270.09" width="2.99" height="2.99" style="fill:#f0f0f0"></rect><rect x="405.39" y="275.1" width="2.99" height="2.99" style="fill:#f0f0f0"></rect><rect x="405.39" y="280.12" width="2.99" height="2.99" style="fill:#f0f0f0"></rect><rect x="405.39" y="285.13" width="2.99" height="2.99" style="fill:#f0f0f0"></rect><rect x="405.39" y="290.15" width="2.99" height="2.99" style="fill:#f0f0f0"></rect><rect x="405.39" y="295.16" width="2.99" height="2.99" style="fill:#f0f0f0"></rect><rect x="405.39" y="300.18" width="2.99" height="2.99" style="fill:#f0f0f0"></rect><rect x="405.39" y="305.19" width="2.99" height="2.99" style="fill:#f0f0f0"></rect><rect x="405.39" y="310.21" width="2.99" height="2.99" style="fill:#f0f0f0"></rect><rect x="405.39" y="315.22" width="2.99" height="2.99" style="fill:#f0f0f0"></rect><rect x="405.39" y="320.24" width="2.99" height="2.99" style="fill:#f0f0f0"></rect><rect x="405.39" y="325.25" width="2.99" height="2.99" style="fill:#f0f0f0"></rect><rect x="405.39" y="330.27" width="2.99" height="2.99" style="fill:#f0f0f0"></rect><rect x="405.39" y="335.28" width="2.99" height="2.99" style="fill:#f0f0f0"></rect><rect x="405.39" y="340.29" width="2.99" height="2.99" style="fill:#f0f0f0"></rect><rect x="410.14" y="229.97" width="2.99" height="2.99" style="fill:#f0f0f0"></rect><rect x="410.14" y="234.99" width="2.99" height="2.99" style="fill:#f0f0f0"></rect><rect x="410.14" y="240" width="2.99" height="2.99" style="fill:#f0f0f0"></rect><rect x="410.14" y="245.02" width="2.99" height="2.99" style="fill:#f0f0f0"></rect><rect x="410.14" y="250.03" width="2.99" height="2.99" style="fill:#f0f0f0"></rect><rect x="410.14" y="255.04" width="2.99" height="2.99" style="fill:#f0f0f0"></rect><rect x="410.14" y="260.06" width="2.99" height="2.99" style="fill:#f0f0f0"></rect><rect x="410.14" y="265.07" width="2.99" height="2.99" style="fill:#f0f0f0"></rect><rect x="410.14" y="270.09" width="2.99" height="2.99" style="fill:#f0f0f0"></rect><rect x="410.14" y="275.1" width="2.99" height="2.99" style="fill:#f0f0f0"></rect><rect x="410.14" y="280.12" width="2.99" height="2.99" style="fill:#f0f0f0"></rect><rect x="410.14" y="285.13" width="2.99" height="2.99" style="fill:#f0f0f0"></rect><rect x="410.14" y="290.15" width="2.99" height="2.99" style="fill:#f0f0f0"></rect><rect x="410.14" y="295.16" width="2.99" height="2.99" style="fill:#f0f0f0"></rect><rect x="410.14" y="300.18" width="2.99" height="2.99" style="fill:#f0f0f0"></rect><rect x="410.14" y="305.19" width="2.99" height="2.99" style="fill:#f0f0f0"></rect><rect x="410.14" y="310.21" width="2.99" height="2.99" style="fill:#f0f0f0"></rect><rect x="410.14" y="315.22" width="2.99" height="2.99" style="fill:#f0f0f0"></rect><rect x="410.14" y="320.24" width="2.99" height="2.99" style="fill:#f0f0f0"></rect><rect x="414.89" y="229.97" width="2.99" height="2.99" style="fill:#f0f0f0"></rect><rect x="414.89" y="234.99" width="2.99" height="2.99" style="fill:#f0f0f0"></rect><rect x="414.89" y="240" width="2.99" height="2.99" style="fill:#f0f0f0"></rect><rect x="414.89" y="245.02" width="2.99" height="2.99" style="fill:#f0f0f0"></rect><rect x="414.89" y="250.03" width="2.99" height="2.99" style="fill:#f0f0f0"></rect><rect x="414.89" y="255.04" width="2.99" height="2.99" style="fill:#f0f0f0"></rect><rect x="414.89" y="260.06" width="2.99" height="2.99" style="fill:#f0f0f0"></rect><rect x="414.89" y="265.07" width="2.99" height="2.99" style="fill:#f0f0f0"></rect><rect x="414.89" y="270.09" width="2.99" height="2.99" style="fill:#f0f0f0"></rect><rect x="414.89" y="275.1" width="2.99" height="2.99" style="fill:#f0f0f0"></rect><rect x="414.89" y="280.12" width="2.99" height="2.99" style="fill:#f0f0f0"></rect><rect x="414.89" y="285.13" width="2.99" height="2.99" style="fill:#f0f0f0"></rect><rect x="414.89" y="290.15" width="2.99" height="2.99" style="fill:#f0f0f0"></rect><rect x="414.89" y="295.16" width="2.99" height="2.99" style="fill:#f0f0f0"></rect><rect x="414.89" y="300.18" width="2.99" height="2.99" style="fill:#f0f0f0"></rect><rect x="414.89" y="305.19" width="2.99" height="2.99" style="fill:#f0f0f0"></rect><rect x="414.89" y="310.21" width="2.99" height="2.99" style="fill:#f0f0f0"></rect><rect x="414.89" y="315.22" width="2.99" height="2.99" style="fill:#f0f0f0"></rect><rect x="414.89" y="320.24" width="2.99" height="2.99" style="fill:#f0f0f0"></rect><rect x="419.64" y="229.97" width="2.99" height="2.99" style="fill:#f0f0f0"></rect><rect x="419.64" y="234.99" width="2.99" height="2.99" style="fill:#f0f0f0"></rect><rect x="419.64" y="240" width="2.99" height="2.99" style="fill:#f0f0f0"></rect><rect x="419.64" y="245.02" width="2.99" height="2.99" style="fill:#f0f0f0"></rect><rect x="419.64" y="250.03" width="2.99" height="2.99" style="fill:#f0f0f0"></rect><rect x="419.64" y="255.04" width="2.99" height="2.99" style="fill:#f0f0f0"></rect><rect x="419.64" y="260.06" width="2.99" height="2.99" style="fill:#f0f0f0"></rect><rect x="419.64" y="265.07" width="2.99" height="2.99" style="fill:#f0f0f0"></rect><rect x="419.64" y="270.09" width="2.99" height="2.99" style="fill:#f0f0f0"></rect><rect x="419.64" y="275.1" width="2.99" height="2.99" style="fill:#f0f0f0"></rect><rect x="419.64" y="280.12" width="2.99" height="2.99" style="fill:#f0f0f0"></rect><rect x="419.64" y="285.13" width="2.99" height="2.99" style="fill:#f0f0f0"></rect><rect x="419.64" y="290.15" width="2.99" height="2.99" style="fill:#f0f0f0"></rect><rect x="419.64" y="295.16" width="2.99" height="2.99" style="fill:#f0f0f0"></rect><rect x="419.64" y="300.18" width="2.99" height="2.99" style="fill:#f0f0f0"></rect><rect x="424.39" y="229.97" width="2.99" height="2.99" style="fill:#f0f0f0"></rect><rect x="424.39" y="234.99" width="2.99" height="2.99" style="fill:#f0f0f0"></rect><rect x="424.39" y="240" width="2.99" height="2.99" style="fill:#f0f0f0"></rect><rect x="424.39" y="245.02" width="2.99" height="2.99" style="fill:#f0f0f0"></rect><rect x="424.39" y="250.03" width="2.99" height="2.99" style="fill:#f0f0f0"></rect><rect x="424.39" y="255.04" width="2.99" height="2.99" style="fill:#f0f0f0"></rect><rect x="424.39" y="260.06" width="2.99" height="2.99" style="fill:#f0f0f0"></rect><rect x="424.39" y="265.07" width="2.99" height="2.99" style="fill:#f0f0f0"></rect><rect x="424.39" y="270.09" width="2.99" height="2.99" style="fill:#f0f0f0"></rect><rect x="424.39" y="275.1" width="2.99" height="2.99" style="fill:#f0f0f0"></rect><rect x="424.39" y="280.12" width="2.99" height="2.99" style="fill:#f0f0f0"></rect><rect x="424.39" y="285.13" width="2.99" height="2.99" style="fill:#f0f0f0"></rect><rect x="424.39" y="290.15" width="2.99" height="2.99" style="fill:#f0f0f0"></rect><rect x="429.14" y="229.97" width="2.99" height="2.99" style="fill:#f0f0f0"></rect><rect x="429.14" y="234.99" width="2.99" height="2.99" style="fill:#f0f0f0"></rect><rect x="429.14" y="240" width="2.99" height="2.99" style="fill:#f0f0f0"></rect><rect x="429.14" y="245.02" width="2.99" height="2.99" style="fill:#f0f0f0"></rect><rect x="429.14" y="250.03" width="2.99" height="2.99" style="fill:#f0f0f0"></rect><rect x="429.14" y="255.04" width="2.99" height="2.99" style="fill:#f0f0f0"></rect><rect x="429.14" y="260.06" width="2.99" height="2.99" style="fill:#f0f0f0"></rect><rect x="429.14" y="265.07" width="2.99" height="2.99" style="fill:#f0f0f0"></rect><rect x="429.14" y="270.09" width="2.99" height="2.99" style="fill:#f0f0f0"></rect><rect x="429.14" y="275.1" width="2.99" height="2.99" style="fill:#f0f0f0"></rect><rect x="429.14" y="280.12" width="2.99" height="2.99" style="fill:#f0f0f0"></rect><rect x="429.14" y="285.13" width="2.99" height="2.99" style="fill:#f0f0f0"></rect><rect x="80.05" y="266.57" width="2.99" height="2.99" style="fill:#f0f0f0"></rect><rect x="80.05" y="271.58" width="2.99" height="2.99" style="fill:#f0f0f0"></rect><rect x="80.05" y="276.6" width="2.99" height="2.99" style="fill:#f0f0f0"></rect><rect x="80.05" y="281.61" width="2.99" height="2.99" style="fill:#f0f0f0"></rect><rect x="80.05" y="286.63" width="2.99" height="2.99" style="fill:#f0f0f0"></rect><rect x="80.05" y="291.64" width="2.99" height="2.99" style="fill:#f0f0f0"></rect><rect x="80.05" y="296.66" width="2.99" height="2.99" style="fill:#f0f0f0"></rect><rect x="80.05" y="301.67" width="2.99" height="2.99" style="fill:#f0f0f0"></rect><rect x="80.05" y="306.69" width="2.99" height="2.99" style="fill:#f0f0f0"></rect><rect x="80.05" y="311.7" width="2.99" height="2.99" style="fill:#f0f0f0"></rect><rect x="80.05" y="316.72" width="2.99" height="2.99" style="fill:#f0f0f0"></rect><rect x="80.05" y="321.73" width="2.99" height="2.99" style="fill:#f0f0f0"></rect><rect x="80.05" y="326.75" width="2.99" height="2.99" style="fill:#f0f0f0"></rect><rect x="80.05" y="331.76" width="2.99" height="2.99" style="fill:#f0f0f0"></rect><rect x="80.05" y="336.78" width="2.99" height="2.99" style="fill:#f0f0f0"></rect><rect x="80.05" y="341.79" width="2.99" height="2.99" style="fill:#f0f0f0"></rect><rect x="80.05" y="346.8" width="2.99" height="2.99" style="fill:#f0f0f0"></rect><rect x="80.05" y="351.82" width="2.99" height="2.99" style="fill:#f0f0f0"></rect><rect x="80.05" y="356.83" width="2.99" height="2.99" style="fill:#f0f0f0"></rect><rect x="80.05" y="361.85" width="2.99" height="2.99" style="fill:#f0f0f0"></rect><rect x="84.8" y="266.57" width="2.99" height="2.99" style="fill:#f0f0f0"></rect><rect x="84.8" y="271.58" width="2.99" height="2.99" style="fill:#f0f0f0"></rect><rect x="84.8" y="276.6" width="2.99" height="2.99" style="fill:#f0f0f0"></rect><rect x="84.8" y="281.61" width="2.99" height="2.99" style="fill:#f0f0f0"></rect><rect x="84.8" y="286.63" width="2.99" height="2.99" style="fill:#f0f0f0"></rect><rect x="84.8" y="291.64" width="2.99" height="2.99" style="fill:#f0f0f0"></rect><rect x="84.8" y="296.66" width="2.99" height="2.99" style="fill:#f0f0f0"></rect><rect x="84.8" y="301.67" width="2.99" height="2.99" style="fill:#f0f0f0"></rect><rect x="84.8" y="306.69" width="2.99" height="2.99" style="fill:#f0f0f0"></rect><rect x="84.8" y="311.7" width="2.99" height="2.99" style="fill:#f0f0f0"></rect><rect x="84.8" y="316.72" width="2.99" height="2.99" style="fill:#f0f0f0"></rect><rect x="84.8" y="321.73" width="2.99" height="2.99" style="fill:#f0f0f0"></rect><rect x="84.8" y="326.75" width="2.99" height="2.99" style="fill:#f0f0f0"></rect><rect x="84.8" y="331.76" width="2.99" height="2.99" style="fill:#f0f0f0"></rect><rect x="84.8" y="336.78" width="2.99" height="2.99" style="fill:#f0f0f0"></rect><rect x="84.8" y="341.79" width="2.99" height="2.99" style="fill:#f0f0f0"></rect><rect x="84.8" y="346.8" width="2.99" height="2.99" style="fill:#f0f0f0"></rect><rect x="84.8" y="351.82" width="2.99" height="2.99" style="fill:#f0f0f0"></rect><rect x="89.55" y="266.57" width="2.99" height="2.99" style="fill:#f0f0f0"></rect><rect x="89.55" y="271.58" width="2.99" height="2.99" style="fill:#f0f0f0"></rect><rect x="89.55" y="276.6" width="2.99" height="2.99" style="fill:#f0f0f0"></rect><rect x="89.55" y="281.61" width="2.99" height="2.99" style="fill:#f0f0f0"></rect><rect x="89.55" y="286.63" width="2.99" height="2.99" style="fill:#f0f0f0"></rect><rect x="89.55" y="291.64" width="2.99" height="2.99" style="fill:#f0f0f0"></rect><rect x="89.55" y="296.66" width="2.99" height="2.99" style="fill:#f0f0f0"></rect><rect x="89.55" y="301.67" width="2.99" height="2.99" style="fill:#f0f0f0"></rect><rect x="89.55" y="306.69" width="2.99" height="2.99" style="fill:#f0f0f0"></rect><rect x="89.55" y="311.7" width="2.99" height="2.99" style="fill:#f0f0f0"></rect><rect x="89.55" y="316.72" width="2.99" height="2.99" style="fill:#f0f0f0"></rect><rect x="89.55" y="321.73" width="2.99" height="2.99" style="fill:#f0f0f0"></rect><rect x="89.55" y="326.75" width="2.99" height="2.99" style="fill:#f0f0f0"></rect><rect x="89.55" y="331.76" width="2.99" height="2.99" style="fill:#f0f0f0"></rect><rect x="89.55" y="336.78" width="2.99" height="2.99" style="fill:#f0f0f0"></rect><rect x="89.55" y="341.79" width="2.99" height="2.99" style="fill:#f0f0f0"></rect><rect x="89.55" y="346.8" width="2.99" height="2.99" style="fill:#f0f0f0"></rect><rect x="89.55" y="351.82" width="2.99" height="2.99" style="fill:#f0f0f0"></rect><rect x="62.28" y="303.17" width="2.99" height="2.99" style="fill:#f0f0f0"></rect><rect x="62.28" y="308.18" width="2.99" height="2.99" style="fill:#f0f0f0"></rect><rect x="62.28" y="313.2" width="2.99" height="2.99" style="fill:#f0f0f0"></rect><rect x="62.28" y="318.21" width="2.99" height="2.99" style="fill:#f0f0f0"></rect><rect x="62.28" y="323.23" width="2.99" height="2.99" style="fill:#f0f0f0"></rect><rect x="62.28" y="328.24" width="2.99" height="2.99" style="fill:#f0f0f0"></rect><rect x="62.28" y="333.26" width="2.99" height="2.99" style="fill:#f0f0f0"></rect><rect x="62.28" y="338.27" width="2.99" height="2.99" style="fill:#f0f0f0"></rect><rect x="62.28" y="343.29" width="2.99" height="2.99" style="fill:#f0f0f0"></rect><rect x="62.28" y="348.3" width="2.99" height="2.99" style="fill:#f0f0f0"></rect><rect x="62.28" y="353.32" width="2.99" height="2.99" style="fill:#f0f0f0"></rect><rect x="62.28" y="358.33" width="2.99" height="2.99" style="fill:#f0f0f0"></rect><rect x="62.28" y="363.34" width="2.99" height="2.99" style="fill:#f0f0f0"></rect><rect x="67.03" y="303.17" width="2.99" height="2.99" style="fill:#f0f0f0"></rect><rect x="67.03" y="308.18" width="2.99" height="2.99" style="fill:#f0f0f0"></rect><rect x="67.03" y="313.2" width="2.99" height="2.99" style="fill:#f0f0f0"></rect><rect x="67.03" y="318.21" width="2.99" height="2.99" style="fill:#f0f0f0"></rect><rect x="67.03" y="323.23" width="2.99" height="2.99" style="fill:#f0f0f0"></rect><rect x="67.03" y="328.24" width="2.99" height="2.99" style="fill:#f0f0f0"></rect><rect x="67.03" y="333.26" width="2.99" height="2.99" style="fill:#f0f0f0"></rect><rect x="67.03" y="338.27" width="2.99" height="2.99" style="fill:#f0f0f0"></rect><rect x="67.03" y="343.29" width="2.99" height="2.99" style="fill:#f0f0f0"></rect><rect x="67.03" y="348.3" width="2.99" height="2.99" style="fill:#f0f0f0"></rect><rect x="67.03" y="353.32" width="2.99" height="2.99" style="fill:#f0f0f0"></rect><rect x="67.03" y="358.33" width="2.99" height="2.99" style="fill:#f0f0f0"></rect><rect x="67.03" y="363.34" width="2.99" height="2.99" style="fill:#f0f0f0"></rect><rect x="71.78" y="303.17" width="2.99" height="2.99" style="fill:#f0f0f0"></rect><rect x="71.78" y="308.18" width="2.99" height="2.99" style="fill:#f0f0f0"></rect><rect x="71.78" y="313.2" width="2.99" height="2.99" style="fill:#f0f0f0"></rect><rect x="71.78" y="318.21" width="2.99" height="2.99" style="fill:#f0f0f0"></rect><rect x="71.78" y="323.23" width="2.99" height="2.99" style="fill:#f0f0f0"></rect><rect x="71.78" y="328.24" width="2.99" height="2.99" style="fill:#f0f0f0"></rect><rect x="71.78" y="333.26" width="2.99" height="2.99" style="fill:#f0f0f0"></rect><rect x="71.78" y="338.27" width="2.99" height="2.99" style="fill:#f0f0f0"></rect><rect x="71.78" y="343.29" width="2.99" height="2.99" style="fill:#f0f0f0"></rect><rect x="71.78" y="348.3" width="2.99" height="2.99" style="fill:#f0f0f0"></rect><rect x="71.78" y="353.32" width="2.99" height="2.99" style="fill:#f0f0f0"></rect><rect x="71.78" y="358.33" width="2.99" height="2.99" style="fill:#f0f0f0"></rect><rect x="71.78" y="363.34" width="2.99" height="2.99" style="fill:#f0f0f0"></rect><rect x="71.78" y="368.36" width="2.99" height="2.99" style="fill:#f0f0f0"></rect><rect x="98.17" y="304.66" width="2.99" height="2.99" style="fill:#f0f0f0"></rect><rect x="98.17" y="309.68" width="2.99" height="2.99" style="fill:#f0f0f0"></rect><rect x="98.17" y="314.69" width="2.99" height="2.99" style="fill:#f0f0f0"></rect><rect x="98.17" y="319.71" width="2.99" height="2.99" style="fill:#f0f0f0"></rect><rect x="98.17" y="324.72" width="2.99" height="2.99" style="fill:#f0f0f0"></rect><rect x="98.17" y="329.74" width="2.99" height="2.99" style="fill:#f0f0f0"></rect><rect x="98.17" y="334.75" width="2.99" height="2.99" style="fill:#f0f0f0"></rect><rect x="98.17" y="339.77" width="2.99" height="2.99" style="fill:#f0f0f0"></rect><rect x="98.17" y="344.78" width="2.99" height="2.99" style="fill:#f0f0f0"></rect><rect x="98.17" y="349.8" width="2.99" height="2.99" style="fill:#f0f0f0"></rect><rect x="98.17" y="364.84" width="2.99" height="2.99" style="fill:#f0f0f0"></rect><rect x="102.92" y="304.66" width="2.99" height="2.99" style="fill:#f0f0f0"></rect><rect x="102.92" y="309.68" width="2.99" height="2.99" style="fill:#f0f0f0"></rect><rect x="102.92" y="314.69" width="2.99" height="2.99" style="fill:#f0f0f0"></rect><rect x="102.92" y="319.71" width="2.99" height="2.99" style="fill:#f0f0f0"></rect><rect x="102.92" y="324.72" width="2.99" height="2.99" style="fill:#f0f0f0"></rect><rect x="102.92" y="329.74" width="2.99" height="2.99" style="fill:#f0f0f0"></rect><rect x="102.92" y="334.75" width="2.99" height="2.99" style="fill:#f0f0f0"></rect><rect x="102.92" y="339.77" width="2.99" height="2.99" style="fill:#f0f0f0"></rect><rect x="102.92" y="344.78" width="2.99" height="2.99" style="fill:#f0f0f0"></rect><rect x="102.92" y="359.83" width="2.99" height="2.99" style="fill:#f0f0f0"></rect><rect x="102.92" y="364.84" width="2.99" height="2.99" style="fill:#f0f0f0"></rect><rect x="107.67" y="304.66" width="2.99" height="2.99" style="fill:#f0f0f0"></rect><rect x="107.67" y="309.68" width="2.99" height="2.99" style="fill:#f0f0f0"></rect><rect x="107.67" y="314.69" width="2.99" height="2.99" style="fill:#f0f0f0"></rect><rect x="107.67" y="319.71" width="2.99" height="2.99" style="fill:#f0f0f0"></rect><rect x="107.67" y="324.72" width="2.99" height="2.99" style="fill:#f0f0f0"></rect><rect x="107.67" y="329.74" width="2.99" height="2.99" style="fill:#f0f0f0"></rect><rect x="107.67" y="334.75" width="2.99" height="2.99" style="fill:#f0f0f0"></rect><rect x="107.67" y="339.77" width="2.99" height="2.99" style="fill:#f0f0f0"></rect><rect x="107.67" y="354.81" width="2.99" height="2.99" style="fill:#f0f0f0"></rect><rect x="107.67" y="359.83" width="2.99" height="2.99" style="fill:#f0f0f0"></rect><rect x="107.67" y="364.84" width="2.99" height="2.99" style="fill:#f0f0f0"></rect><rect x="151.84" y="228.48" width="2.99" height="2.99" style="fill:#f0f0f0"></rect><rect x="151.84" y="233.49" width="2.99" height="2.99" style="fill:#f0f0f0"></rect><rect x="151.84" y="238.5" width="2.99" height="2.99" style="fill:#f0f0f0"></rect><rect x="151.84" y="243.52" width="2.99" height="2.99" style="fill:#f0f0f0"></rect><rect x="151.84" y="248.53" width="2.99" height="2.99" style="fill:#f0f0f0"></rect><rect x="151.84" y="253.55" width="2.99" height="2.99" style="fill:#f0f0f0"></rect><rect x="151.84" y="258.56" width="2.99" height="2.99" style="fill:#f0f0f0"></rect><rect x="151.84" y="263.58" width="2.99" height="2.99" style="fill:#f0f0f0"></rect><rect x="151.84" y="268.59" width="2.99" height="2.99" style="fill:#f0f0f0"></rect><rect x="151.84" y="273.61" width="2.99" height="2.99" style="fill:#f0f0f0"></rect><rect x="151.84" y="278.62" width="2.99" height="2.99" style="fill:#f0f0f0"></rect><rect x="151.84" y="283.64" width="2.99" height="2.99" style="fill:#f0f0f0"></rect><rect x="151.84" y="288.65" width="2.99" height="2.99" style="fill:#f0f0f0"></rect><rect x="151.84" y="293.67" width="2.99" height="2.99" style="fill:#f0f0f0"></rect><rect x="151.84" y="298.68" width="2.99" height="2.99" style="fill:#f0f0f0"></rect><rect x="151.84" y="303.7" width="2.99" height="2.99" style="fill:#f0f0f0"></rect><rect x="151.84" y="308.71" width="2.99" height="2.99" style="fill:#f0f0f0"></rect><rect x="151.84" y="318.74" width="2.99" height="2.99" style="fill:#f0f0f0"></rect><rect x="151.84" y="323.75" width="2.99" height="2.99" style="fill:#f0f0f0"></rect><rect x="151.84" y="328.77" width="2.99" height="2.99" style="fill:#f0f0f0"></rect><rect x="151.84" y="333.78" width="2.99" height="2.99" style="fill:#f0f0f0"></rect><rect x="151.84" y="338.8" width="2.99" height="2.99" style="fill:#f0f0f0"></rect><rect x="156.59" y="228.48" width="2.99" height="2.99" style="fill:#f0f0f0"></rect><rect x="156.59" y="233.49" width="2.99" height="2.99" style="fill:#f0f0f0"></rect><rect x="156.59" y="238.5" width="2.99" height="2.99" style="fill:#f0f0f0"></rect><rect x="156.59" y="243.52" width="2.99" height="2.99" style="fill:#f0f0f0"></rect><rect x="156.59" y="248.53" width="2.99" height="2.99" style="fill:#f0f0f0"></rect><rect x="156.59" y="253.55" width="2.99" height="2.99" style="fill:#f0f0f0"></rect><rect x="156.59" y="258.56" width="2.99" height="2.99" style="fill:#f0f0f0"></rect><rect x="156.59" y="263.58" width="2.99" height="2.99" style="fill:#f0f0f0"></rect><rect x="156.59" y="268.59" width="2.99" height="2.99" style="fill:#f0f0f0"></rect><rect x="156.59" y="273.61" width="2.99" height="2.99" style="fill:#f0f0f0"></rect><rect x="156.59" y="278.62" width="2.99" height="2.99" style="fill:#f0f0f0"></rect><rect x="156.59" y="283.64" width="2.99" height="2.99" style="fill:#f0f0f0"></rect><rect x="156.59" y="288.65" width="2.99" height="2.99" style="fill:#f0f0f0"></rect><rect x="156.59" y="293.67" width="2.99" height="2.99" style="fill:#f0f0f0"></rect><rect x="156.59" y="298.68" width="2.99" height="2.99" style="fill:#f0f0f0"></rect><rect x="156.59" y="303.7" width="2.99" height="2.99" style="fill:#f0f0f0"></rect><rect x="156.59" y="333.78" width="2.99" height="2.99" style="fill:#f0f0f0"></rect><rect x="156.59" y="338.8" width="2.99" height="2.99" style="fill:#f0f0f0"></rect><rect x="161.34" y="228.48" width="2.99" height="2.99" style="fill:#f0f0f0"></rect><rect x="161.34" y="233.49" width="2.99" height="2.99" style="fill:#f0f0f0"></rect><rect x="161.34" y="238.5" width="2.99" height="2.99" style="fill:#f0f0f0"></rect><rect x="161.34" y="243.52" width="2.99" height="2.99" style="fill:#f0f0f0"></rect><rect x="161.34" y="248.53" width="2.99" height="2.99" style="fill:#f0f0f0"></rect><rect x="161.34" y="253.55" width="2.99" height="2.99" style="fill:#f0f0f0"></rect><rect x="161.34" y="258.56" width="2.99" height="2.99" style="fill:#f0f0f0"></rect><rect x="161.34" y="263.58" width="2.99" height="2.99" style="fill:#f0f0f0"></rect><rect x="161.34" y="268.59" width="2.99" height="2.99" style="fill:#f0f0f0"></rect><rect x="161.34" y="273.61" width="2.99" height="2.99" style="fill:#f0f0f0"></rect><rect x="161.34" y="278.62" width="2.99" height="2.99" style="fill:#f0f0f0"></rect><rect x="161.34" y="283.64" width="2.99" height="2.99" style="fill:#f0f0f0"></rect><rect x="161.34" y="288.65" width="2.99" height="2.99" style="fill:#f0f0f0"></rect><rect x="161.34" y="293.67" width="2.99" height="2.99" style="fill:#f0f0f0"></rect><rect x="161.34" y="298.68" width="2.99" height="2.99" style="fill:#f0f0f0"></rect><rect x="161.34" y="303.7" width="2.99" height="2.99" style="fill:#f0f0f0"></rect><rect x="161.34" y="313.73" width="2.99" height="2.99" style="fill:#f0f0f0"></rect><rect x="161.34" y="318.74" width="2.99" height="2.99" style="fill:#f0f0f0"></rect><rect x="161.34" y="323.75" width="2.99" height="2.99" style="fill:#f0f0f0"></rect><rect x="161.34" y="328.77" width="2.99" height="2.99" style="fill:#f0f0f0"></rect><rect x="161.34" y="338.8" width="2.99" height="2.99" style="fill:#f0f0f0"></rect><rect x="134.59" y="291.64" width="2.99" height="2.99" style="fill:#f0f0f0"></rect><rect x="134.59" y="296.66" width="2.99" height="2.99" style="fill:#f0f0f0"></rect><rect x="134.59" y="301.67" width="2.99" height="2.99" style="fill:#f0f0f0"></rect><rect x="134.59" y="306.69" width="2.99" height="2.99" style="fill:#f0f0f0"></rect><rect x="134.59" y="311.7" width="2.99" height="2.99" style="fill:#f0f0f0"></rect><rect x="134.59" y="316.72" width="2.99" height="2.99" style="fill:#f0f0f0"></rect><rect x="134.59" y="321.73" width="2.99" height="2.99" style="fill:#f0f0f0"></rect><rect x="134.59" y="331.76" width="2.99" height="2.99" style="fill:#f0f0f0"></rect><rect x="134.59" y="336.78" width="2.99" height="2.99" style="fill:#f0f0f0"></rect><rect x="134.59" y="341.79" width="2.99" height="2.99" style="fill:#f0f0f0"></rect><rect x="134.59" y="346.8" width="2.99" height="2.99" style="fill:#f0f0f0"></rect><rect x="134.59" y="351.82" width="2.99" height="2.99" style="fill:#f0f0f0"></rect><rect x="134.59" y="356.83" width="2.99" height="2.99" style="fill:#f0f0f0"></rect><rect x="134.59" y="361.85" width="2.99" height="2.99" style="fill:#f0f0f0"></rect><rect x="134.59" y="366.86" width="2.99" height="2.99" style="fill:#f0f0f0"></rect><rect x="139.34" y="291.64" width="2.99" height="2.99" style="fill:#f0f0f0"></rect><rect x="139.34" y="296.66" width="2.99" height="2.99" style="fill:#f0f0f0"></rect><rect x="139.34" y="301.67" width="2.99" height="2.99" style="fill:#f0f0f0"></rect><rect x="139.34" y="306.69" width="2.99" height="2.99" style="fill:#f0f0f0"></rect><rect x="139.34" y="311.7" width="2.99" height="2.99" style="fill:#f0f0f0"></rect><rect x="139.34" y="316.72" width="2.99" height="2.99" style="fill:#f0f0f0"></rect><rect x="139.34" y="331.76" width="2.99" height="2.99" style="fill:#f0f0f0"></rect><rect x="139.34" y="336.78" width="2.99" height="2.99" style="fill:#f0f0f0"></rect><rect x="139.34" y="341.79" width="2.99" height="2.99" style="fill:#f0f0f0"></rect><rect x="139.34" y="346.8" width="2.99" height="2.99" style="fill:#f0f0f0"></rect><rect x="139.34" y="351.82" width="2.99" height="2.99" style="fill:#f0f0f0"></rect><rect x="139.34" y="356.83" width="2.99" height="2.99" style="fill:#f0f0f0"></rect><rect x="139.34" y="361.85" width="2.99" height="2.99" style="fill:#f0f0f0"></rect><rect x="139.34" y="366.86" width="2.99" height="2.99" style="fill:#f0f0f0"></rect><rect x="144.09" y="291.64" width="2.99" height="2.99" style="fill:#f0f0f0"></rect><rect x="144.09" y="296.66" width="2.99" height="2.99" style="fill:#f0f0f0"></rect><rect x="144.09" y="301.67" width="2.99" height="2.99" style="fill:#f0f0f0"></rect><rect x="144.09" y="306.69" width="2.99" height="2.99" style="fill:#f0f0f0"></rect><rect x="144.09" y="311.7" width="2.99" height="2.99" style="fill:#f0f0f0"></rect><rect x="144.09" y="316.72" width="2.99" height="2.99" style="fill:#f0f0f0"></rect><rect x="144.09" y="326.75" width="2.99" height="2.99" style="fill:#f0f0f0"></rect><rect x="144.09" y="331.76" width="2.99" height="2.99" style="fill:#f0f0f0"></rect><rect x="144.09" y="336.78" width="2.99" height="2.99" style="fill:#f0f0f0"></rect><rect x="144.09" y="341.79" width="2.99" height="2.99" style="fill:#f0f0f0"></rect><rect x="144.09" y="346.8" width="2.99" height="2.99" style="fill:#f0f0f0"></rect><rect x="144.09" y="351.82" width="2.99" height="2.99" style="fill:#f0f0f0"></rect><rect x="144.09" y="356.83" width="2.99" height="2.99" style="fill:#f0f0f0"></rect><rect x="144.09" y="361.85" width="2.99" height="2.99" style="fill:#f0f0f0"></rect><rect x="144.09" y="366.86" width="2.99" height="2.99" style="fill:#f0f0f0"></rect><rect x="244.21" y="263.58" width="2.99" height="2.99" style="fill:#f0f0f0"></rect><rect x="244.21" y="268.59" width="2.99" height="2.99" style="fill:#f0f0f0"></rect><rect x="244.21" y="273.61" width="2.99" height="2.99" style="fill:#f0f0f0"></rect><rect x="244.21" y="278.62" width="2.99" height="2.99" style="fill:#f0f0f0"></rect><rect x="244.21" y="283.64" width="2.99" height="2.99" style="fill:#f0f0f0"></rect><rect x="244.21" y="288.65" width="2.99" height="2.99" style="fill:#f0f0f0"></rect><rect x="244.21" y="293.67" width="2.99" height="2.99" style="fill:#f0f0f0"></rect><rect x="244.21" y="298.68" width="2.99" height="2.99" style="fill:#f0f0f0"></rect><rect x="244.21" y="303.7" width="2.99" height="2.99" style="fill:#f0f0f0"></rect><rect x="244.21" y="308.71" width="2.99" height="2.99" style="fill:#f0f0f0"></rect><rect x="244.21" y="313.73" width="2.99" height="2.99" style="fill:#f0f0f0"></rect><rect x="244.21" y="318.74" width="2.99" height="2.99" style="fill:#f0f0f0"></rect><rect x="244.21" y="323.75" width="2.99" height="2.99" style="fill:#f0f0f0"></rect><rect x="244.21" y="333.78" width="2.99" height="2.99" style="fill:#f0f0f0"></rect><rect x="244.21" y="338.8" width="2.99" height="2.99" style="fill:#f0f0f0"></rect><rect x="244.21" y="343.81" width="2.99" height="2.99" style="fill:#f0f0f0"></rect><rect x="244.21" y="348.83" width="2.99" height="2.99" style="fill:#f0f0f0"></rect><rect x="244.21" y="358.86" width="2.99" height="2.99" style="fill:#f0f0f0"></rect><rect x="244.21" y="363.87" width="2.99" height="2.99" style="fill:#f0f0f0"></rect><rect x="244.21" y="368.89" width="2.99" height="2.99" style="fill:#f0f0f0"></rect><rect x="248.96" y="263.58" width="2.99" height="2.99" style="fill:#f0f0f0"></rect><rect x="248.96" y="268.59" width="2.99" height="2.99" style="fill:#f0f0f0"></rect><rect x="248.96" y="273.61" width="2.99" height="2.99" style="fill:#f0f0f0"></rect><rect x="248.96" y="278.62" width="2.99" height="2.99" style="fill:#f0f0f0"></rect><rect x="248.96" y="283.64" width="2.99" height="2.99" style="fill:#f0f0f0"></rect><rect x="248.96" y="288.65" width="2.99" height="2.99" style="fill:#f0f0f0"></rect><rect x="248.96" y="293.67" width="2.99" height="2.99" style="fill:#f0f0f0"></rect><rect x="248.96" y="298.68" width="2.99" height="2.99" style="fill:#f0f0f0"></rect><rect x="248.96" y="303.7" width="2.99" height="2.99" style="fill:#f0f0f0"></rect><rect x="248.96" y="308.71" width="2.99" height="2.99" style="fill:#f0f0f0"></rect><rect x="248.96" y="313.73" width="2.99" height="2.99" style="fill:#f0f0f0"></rect><rect x="248.96" y="318.74" width="2.99" height="2.99" style="fill:#f0f0f0"></rect><rect x="248.96" y="323.75" width="2.99" height="2.99" style="fill:#f0f0f0"></rect><rect x="248.96" y="338.8" width="2.99" height="2.99" style="fill:#f0f0f0"></rect><rect x="248.96" y="343.81" width="2.99" height="2.99" style="fill:#f0f0f0"></rect><rect x="248.96" y="353.84" width="2.99" height="2.99" style="fill:#f0f0f0"></rect><rect x="248.96" y="358.86" width="2.99" height="2.99" style="fill:#f0f0f0"></rect><rect x="248.96" y="363.87" width="2.99" height="2.99" style="fill:#f0f0f0"></rect><rect x="248.96" y="368.89" width="2.99" height="2.99" style="fill:#f0f0f0"></rect><rect x="253.71" y="263.58" width="2.99" height="2.99" style="fill:#f0f0f0"></rect><rect x="253.71" y="268.59" width="2.99" height="2.99" style="fill:#f0f0f0"></rect><rect x="253.71" y="273.61" width="2.99" height="2.99" style="fill:#f0f0f0"></rect><rect x="253.71" y="278.62" width="2.99" height="2.99" style="fill:#f0f0f0"></rect><rect x="253.71" y="283.64" width="2.99" height="2.99" style="fill:#f0f0f0"></rect><rect x="253.71" y="288.65" width="2.99" height="2.99" style="fill:#f0f0f0"></rect><rect x="253.71" y="293.67" width="2.99" height="2.99" style="fill:#f0f0f0"></rect><rect x="253.71" y="298.68" width="2.99" height="2.99" style="fill:#f0f0f0"></rect><rect x="253.71" y="303.7" width="2.99" height="2.99" style="fill:#f0f0f0"></rect><rect x="253.71" y="308.71" width="2.99" height="2.99" style="fill:#f0f0f0"></rect><rect x="253.71" y="313.73" width="2.99" height="2.99" style="fill:#f0f0f0"></rect><rect x="253.71" y="318.74" width="2.99" height="2.99" style="fill:#f0f0f0"></rect><rect x="253.71" y="323.75" width="2.99" height="2.99" style="fill:#f0f0f0"></rect><rect x="253.71" y="328.77" width="2.99" height="2.99" style="fill:#f0f0f0"></rect><rect x="253.71" y="338.8" width="2.99" height="2.99" style="fill:#f0f0f0"></rect><rect x="253.71" y="348.83" width="2.99" height="2.99" style="fill:#f0f0f0"></rect><rect x="253.71" y="353.84" width="2.99" height="2.99" style="fill:#f0f0f0"></rect><rect x="253.71" y="358.86" width="2.99" height="2.99" style="fill:#f0f0f0"></rect><rect x="253.71" y="363.87" width="2.99" height="2.99" style="fill:#f0f0f0"></rect><rect x="253.71" y="368.89" width="2.99" height="2.99" style="fill:#f0f0f0"></rect><rect x="224.86" y="292.17" width="2.99" height="2.99" style="fill:#f0f0f0"></rect><rect x="224.86" y="297.19" width="2.99" height="2.99" style="fill:#f0f0f0"></rect><rect x="224.86" y="302.2" width="2.99" height="2.99" style="fill:#f0f0f0"></rect><rect x="224.86" y="307.22" width="2.99" height="2.99" style="fill:#f0f0f0"></rect><rect x="224.86" y="312.23" width="2.99" height="2.99" style="fill:#f0f0f0"></rect><rect x="224.86" y="317.24" width="2.99" height="2.99" style="fill:#f0f0f0"></rect><rect x="224.86" y="332.29" width="2.99" height="2.99" style="fill:#f0f0f0"></rect><rect x="224.86" y="337.3" width="2.99" height="2.99" style="fill:#f0f0f0"></rect><rect x="224.86" y="342.32" width="2.99" height="2.99" style="fill:#f0f0f0"></rect><rect x="224.86" y="347.33" width="2.99" height="2.99" style="fill:#f0f0f0"></rect><rect x="224.86" y="352.35" width="2.99" height="2.99" style="fill:#f0f0f0"></rect><rect x="224.86" y="357.36" width="2.99" height="2.99" style="fill:#f0f0f0"></rect><rect x="224.86" y="362.38" width="2.99" height="2.99" style="fill:#f0f0f0"></rect><rect x="229.61" y="292.17" width="2.99" height="2.99" style="fill:#f0f0f0"></rect><rect x="229.61" y="297.19" width="2.99" height="2.99" style="fill:#f0f0f0"></rect><rect x="229.61" y="302.2" width="2.99" height="2.99" style="fill:#f0f0f0"></rect><rect x="229.61" y="307.22" width="2.99" height="2.99" style="fill:#f0f0f0"></rect><rect x="229.61" y="312.23" width="2.99" height="2.99" style="fill:#f0f0f0"></rect><rect x="229.61" y="317.24" width="2.99" height="2.99" style="fill:#f0f0f0"></rect><rect x="229.61" y="332.29" width="2.99" height="2.99" style="fill:#f0f0f0"></rect><rect x="229.61" y="337.3" width="2.99" height="2.99" style="fill:#f0f0f0"></rect><rect x="229.61" y="342.32" width="2.99" height="2.99" style="fill:#f0f0f0"></rect><rect x="229.61" y="347.33" width="2.99" height="2.99" style="fill:#f0f0f0"></rect><rect x="229.61" y="352.35" width="2.99" height="2.99" style="fill:#f0f0f0"></rect><rect x="229.61" y="357.36" width="2.99" height="2.99" style="fill:#f0f0f0"></rect><rect x="229.61" y="367.39" width="2.99" height="2.99" style="fill:#f0f0f0"></rect><rect x="387.44" y="270.09" width="2.99" height="2.99" style="fill:#f0f0f0"></rect><rect x="387.44" y="275.1" width="2.99" height="2.99" style="fill:#f0f0f0"></rect><rect x="387.44" y="280.12" width="2.99" height="2.99" style="fill:#f0f0f0"></rect><rect x="387.44" y="285.13" width="2.99" height="2.99" style="fill:#f0f0f0"></rect><rect x="387.44" y="290.15" width="2.99" height="2.99" style="fill:#f0f0f0"></rect><rect x="387.44" y="295.16" width="2.99" height="2.99" style="fill:#f0f0f0"></rect><rect x="387.44" y="300.18" width="2.99" height="2.99" style="fill:#f0f0f0"></rect><rect x="387.44" y="305.19" width="2.99" height="2.99" style="fill:#f0f0f0"></rect><rect x="387.44" y="310.21" width="2.99" height="2.99" style="fill:#f0f0f0"></rect><rect x="387.44" y="315.22" width="2.99" height="2.99" style="fill:#f0f0f0"></rect><rect x="387.44" y="320.24" width="2.99" height="2.99" style="fill:#f0f0f0"></rect><rect x="387.44" y="330.27" width="2.99" height="2.99" style="fill:#f0f0f0"></rect><rect x="387.44" y="335.28" width="2.99" height="2.99" style="fill:#f0f0f0"></rect><rect x="387.44" y="340.29" width="2.99" height="2.99" style="fill:#f0f0f0"></rect><rect x="387.44" y="345.31" width="2.99" height="2.99" style="fill:#f0f0f0"></rect><rect x="387.44" y="350.32" width="2.99" height="2.99" style="fill:#f0f0f0"></rect><rect x="387.44" y="355.34" width="2.99" height="2.99" style="fill:#f0f0f0"></rect><rect x="387.44" y="360.35" width="2.99" height="2.99" style="fill:#f0f0f0"></rect><rect x="387.44" y="365.37" width="2.99" height="2.99" style="fill:#f0f0f0"></rect><rect x="392.19" y="270.09" width="2.99" height="2.99" style="fill:#f0f0f0"></rect><rect x="392.19" y="275.1" width="2.99" height="2.99" style="fill:#f0f0f0"></rect><rect x="392.19" y="280.12" width="2.99" height="2.99" style="fill:#f0f0f0"></rect><rect x="392.19" y="285.13" width="2.99" height="2.99" style="fill:#f0f0f0"></rect><rect x="392.19" y="290.15" width="2.99" height="2.99" style="fill:#f0f0f0"></rect><rect x="392.19" y="295.16" width="2.99" height="2.99" style="fill:#f0f0f0"></rect><rect x="392.19" y="300.18" width="2.99" height="2.99" style="fill:#f0f0f0"></rect><rect x="392.19" y="305.19" width="2.99" height="2.99" style="fill:#f0f0f0"></rect><rect x="392.19" y="310.21" width="2.99" height="2.99" style="fill:#f0f0f0"></rect><rect x="392.19" y="315.22" width="2.99" height="2.99" style="fill:#f0f0f0"></rect><rect x="392.19" y="320.24" width="2.99" height="2.99" style="fill:#f0f0f0"></rect><rect x="392.19" y="325.25" width="2.99" height="2.99" style="fill:#f0f0f0"></rect><rect x="392.19" y="330.27" width="2.99" height="2.99" style="fill:#f0f0f0"></rect><rect x="392.19" y="335.28" width="2.99" height="2.99" style="fill:#f0f0f0"></rect><rect x="392.19" y="340.29" width="2.99" height="2.99" style="fill:#f0f0f0"></rect><rect x="392.19" y="345.31" width="2.99" height="2.99" style="fill:#f0f0f0"></rect><rect x="392.19" y="350.32" width="2.99" height="2.99" style="fill:#f0f0f0"></rect><rect x="392.19" y="355.34" width="2.99" height="2.99" style="fill:#f0f0f0"></rect><rect x="392.19" y="360.35" width="2.99" height="2.99" style="fill:#f0f0f0"></rect><rect x="392.19" y="365.37" width="2.99" height="2.99" style="fill:#f0f0f0"></rect><rect x="364.04" y="289.62" width="2.99" height="2.99" style="fill:#f0f0f0"></rect><rect x="364.04" y="294.63" width="2.99" height="2.99" style="fill:#f0f0f0"></rect><rect x="364.04" y="299.65" width="2.99" height="2.99" style="fill:#f0f0f0"></rect><rect x="364.04" y="304.66" width="2.99" height="2.99" style="fill:#f0f0f0"></rect><rect x="364.04" y="309.68" width="2.99" height="2.99" style="fill:#f0f0f0"></rect><rect x="364.04" y="314.69" width="2.99" height="2.99" style="fill:#f0f0f0"></rect><rect x="364.04" y="319.71" width="2.99" height="2.99" style="fill:#f0f0f0"></rect><rect x="364.04" y="324.72" width="2.99" height="2.99" style="fill:#f0f0f0"></rect><rect x="364.04" y="329.74" width="2.99" height="2.99" style="fill:#f0f0f0"></rect><rect x="364.04" y="334.75" width="2.99" height="2.99" style="fill:#f0f0f0"></rect><rect x="368.79" y="289.62" width="2.99" height="2.99" style="fill:#f0f0f0"></rect><rect x="368.79" y="294.63" width="2.99" height="2.99" style="fill:#f0f0f0"></rect><rect x="368.79" y="299.65" width="2.99" height="2.99" style="fill:#f0f0f0"></rect><rect x="368.79" y="304.66" width="2.99" height="2.99" style="fill:#f0f0f0"></rect><rect x="368.79" y="309.68" width="2.99" height="2.99" style="fill:#f0f0f0"></rect><rect x="368.79" y="314.69" width="2.99" height="2.99" style="fill:#f0f0f0"></rect><rect x="368.79" y="319.71" width="2.99" height="2.99" style="fill:#f0f0f0"></rect><rect x="368.79" y="324.72" width="2.99" height="2.99" style="fill:#f0f0f0"></rect><rect x="368.79" y="329.74" width="2.99" height="2.99" style="fill:#f0f0f0"></rect></g><g id="freepik--Shadow--inject-7"><ellipse id="freepik--path--inject-7" cx="250" cy="416.24" rx="193.89" ry="11.32" style="fill:#f5f5f5"></ellipse></g><g id="freepik--Plants--inject-7"><path d="M422,396.15s4.53-15.18-4.64-18.21-14.61-10.12-14.3-18.16-9.35-15.85-16.59-8.32-6.27-5.79-15.92-9-17.84,4.61-15.19,11.79-6.89,11.66-18.29,5.55-24,5-21.54,13.69.43,9.65-6.78,6.76-20.13,5.31-15.6,15.92S422,396.15,422,396.15Z" style="fill:#C53F3F"></path><path d="M179.4,404.44c4.83-4.83.49-13-4.34-14s-9.68-9.46-9.91-14.86-8.91-22-22.43-11.77-9.4,1.51-19.18-1.37-15.94,5.41-11.65,11.64c0,0-9.82-2.46-13.87,6.71s0,14.86,0,14.86-18.47-.54-16.8,10.88S179.4,404.44,179.4,404.44Z" style="fill:#C53F3F"></path><path d="M422,396.15s4.53-15.18-4.64-18.21-14.61-10.12-14.3-18.16-9.35-15.85-16.59-8.32-6.27-5.79-15.92-9-17.84,4.61-15.19,11.79-6.89,11.66-18.29,5.55-24,5-21.54,13.69.43,9.65-6.78,6.76-20.13,5.31-15.6,15.92S422,396.15,422,396.15Z" style="fill:#fff;opacity:0.4"></path><path d="M179.4,404.44c4.83-4.83.49-13-4.34-14s-9.68-9.46-9.91-14.86-8.91-22-22.43-11.77-9.4,1.51-19.18-1.37-15.94,5.41-11.65,11.64c0,0-9.82-2.46-13.87,6.71s0,14.86,0,14.86-18.47-.54-16.8,10.88S179.4,404.44,179.4,404.44Z" style="fill:#fff;opacity:0.4"></path><path d="M64.68,394.44H435.46a1.89,1.89,0,0,1,1.89,1.89v17.12a0,0,0,0,1,0,0H62.78a0,0,0,0,1,0,0V396.33A1.89,1.89,0,0,1,64.68,394.44Z" style="fill:#263238"></path><path d="M64.68,394.44H435.46a1.89,1.89,0,0,1,1.89,1.89v17.12a0,0,0,0,1,0,0H62.78a0,0,0,0,1,0,0V396.33A1.89,1.89,0,0,1,64.68,394.44Z" style="fill:#fff;opacity:0.5"></path><rect x="410.98" y="398.25" width="24.53" height="12.88" style="fill:#fff;opacity:0.2"></rect><rect x="385.14" y="397.02" width="24.53" height="12.88" style="fill:#fff;opacity:0.2"></rect><rect x="368.12" y="401.71" width="15.97" height="8.19" style="fill:#fff;opacity:0.2"></rect><rect x="68.82" y="402.77" width="15.97" height="8.19" style="fill:#fff;opacity:0.2"></rect><rect x="350.06" y="397.62" width="16.79" height="11.21" style="fill:#fff;opacity:0.2"></rect><rect x="337.4" y="396.11" width="11.42" height="11.21" style="fill:#fff;opacity:0.2"></rect><rect x="86.64" y="398.25" width="11.42" height="11.21" style="fill:#fff;opacity:0.2"></rect><rect x="289.27" y="398.25" width="11.42" height="11.21" style="fill:#fff;opacity:0.2"></rect><rect x="301.27" y="396.11" width="11.42" height="7.75" style="fill:#fff;opacity:0.2"></rect><rect x="317.42" y="399.08" width="18.81" height="11.21" style="fill:#fff;opacity:0.2"></rect><rect x="269.17" y="397.62" width="18.81" height="11.21" style="fill:#fff;opacity:0.2"></rect><rect x="370.87" y="397.02" width="12.11" height="3.61" style="fill:#fff;opacity:0.2"></rect><rect x="68.82" y="397.28" width="12.11" height="3.61" style="fill:#fff;opacity:0.2"></rect><rect x="303.11" y="405.52" width="12.11" height="3.61" style="fill:#fff;opacity:0.2"></rect><rect x="242.98" y="398.25" width="24.53" height="12.88" style="fill:#fff;opacity:0.2"></rect><rect x="217.14" y="397.02" width="24.53" height="12.88" style="fill:#fff;opacity:0.2"></rect><rect x="200.12" y="401.71" width="15.97" height="8.19" style="fill:#fff;opacity:0.2"></rect><rect x="182.06" y="397.62" width="16.79" height="11.21" style="fill:#fff;opacity:0.2"></rect><rect x="169.4" y="396.11" width="11.42" height="11.21" style="fill:#fff;opacity:0.2"></rect><rect x="121.27" y="398.25" width="11.42" height="11.21" style="fill:#fff;opacity:0.2"></rect><rect x="133.27" y="396.11" width="11.42" height="7.75" style="fill:#fff;opacity:0.2"></rect><rect x="149.42" y="399.08" width="18.81" height="11.21" style="fill:#fff;opacity:0.2"></rect><rect x="101.17" y="397.62" width="18.81" height="11.21" style="fill:#fff;opacity:0.2"></rect><rect x="202.87" y="397.02" width="12.11" height="3.61" style="fill:#fff;opacity:0.2"></rect><rect x="135.11" y="405.52" width="12.11" height="3.61" style="fill:#fff;opacity:0.2"></rect><path d="M197.94,415.76s-7.95-15.52-5.95-17,5.95,13,5.95,11.84-.22-20.86,3.45-20.07,0,18.94,0,18.94,4.94-9.28,6.88-8.58-5.71,11.74-5.71,11.74,4.56-2.76,5.71-2.55-5.71,5.72-5.71,5.72Z" style="fill:#C53F3F"></path><path d="M78.08,415.76s-9-8-6.34-9.3,6,6,6.34,4.9-1.77-11.21,3.25-10.51,0,10.51,0,10.51,3.71-4,5-3.39-4,7.79-4,7.79Z" style="fill:#C53F3F"></path><path d="M418.7,415.76s9-8,6.33-9.3-6,6-6.33,4.9,1.76-11.21-3.25-10.51,0,10.51,0,10.51-3.72-4-5-3.39,3.95,7.79,3.95,7.79Z" style="fill:#C53F3F"></path></g><g id="freepik--speech-bubble--inject-7"><rect x="302.08" y="96.5" width="28.37" height="28.37" rx="2.38" transform="translate(603.9 282.55) rotate(-168.43)" style="fill:#C53F3F"></rect><rect x="302.08" y="96.5" width="28.37" height="28.37" rx="2.38" transform="translate(603.9 282.55) rotate(-168.43)" style="fill:#fff;opacity:0.6000000000000001"></rect><path d="M317.11,122.76s-3,7.54-14.09,9c0,0,7-4.48,8.21-10.16Z" style="fill:#C53F3F"></path><path d="M317.11,122.76s-3,7.54-14.09,9c0,0,7-4.48,8.21-10.16Z" style="fill:#fff;opacity:0.6000000000000001"></path><path d="M320.56,115.77l3.05-10.7-8.92-.12L312,114.58a4.57,4.57,0,0,0-1.71-.91c-1.65-.47-3.23,0-3.52,1s.81,2.25,2.46,2.72,3.22,0,3.52-1a1.39,1.39,0,0,0,0-.73l1.74-6.1,6.8.26-1.39,4.87a4.57,4.57,0,0,0-1.71-.91c-1.65-.47-3.22,0-3.52,1s.81,2.24,2.46,2.71,3.23,0,3.52-1A1.3,1.3,0,0,0,320.56,115.77Zm-5.86-7.2.74-2.61,6.85.1-.79,2.77Z" style="fill:#C53F3F"></path></g><g id="freepik--Character--inject-7"><polygon points="267.97 411.38 260.14 411.38 259.18 403.53 257.92 393.25 265.75 393.25 266.94 402.99 267.97 411.38" style="fill:#7f3e3b"></polygon><path d="M259.12,410.48h9.54a.68.68,0,0,1,.67.54l1.62,7a1.14,1.14,0,0,1-1.13,1.39c-3.07-.05-5.32-.23-9.18-.23-2.38,0-9.56.24-12.85.24s-3.74-3.25-2.4-3.54c6-1.32,10.55-3.14,12.46-4.88A1.91,1.91,0,0,1,259.12,410.48Z" style="fill:#C53F3F"></path><path d="M256.54,411.85a2.37,2.37,0,0,1-1.51-.4,1.1,1.1,0,0,1-.39-1A.54.54,0,0,1,255,410c.86-.45,3.4,1.1,3.69,1.28a.18.18,0,0,1,.08.19.18.18,0,0,1-.13.15A9.4,9.4,0,0,1,256.54,411.85Zm-1.18-1.62a.43.43,0,0,0-.24,0c-.05,0-.11.07-.11.21a.76.76,0,0,0,.25.68,3.8,3.8,0,0,0,2.79.14A7.63,7.63,0,0,0,255.36,410.23Z" style="fill:#263238"></path><path d="M258.54,411.57a.15.15,0,0,1-.09,0c-.81-.44-2.39-2.15-2.24-3a.59.59,0,0,1,.59-.48,1,1,0,0,1,.79.24c.92.74,1.13,3,1.14,3.09a.19.19,0,0,1-.09.17A.17.17,0,0,1,258.54,411.57Zm-1.61-3.17h-.08c-.24,0-.26.14-.27.18-.09.52.92,1.81,1.73,2.43a4.54,4.54,0,0,0-.95-2.46A.68.68,0,0,0,256.93,408.4Z" style="fill:#263238"></path><polygon points="266.94 402.99 259.18 403.53 257.92 393.25 265.75 393.25 266.94 402.99" style="opacity:0.2"></polygon><polygon points="175.92 381.42 169.38 377.08 177.51 360.76 184.05 365.1 175.92 381.42" style="fill:#7f3e3b"></polygon><path d="M169.47,375.56l7.72,3.72a.69.69,0,0,1,.38.77L176,387a1.12,1.12,0,0,1-1.61.76c-2.76-1.39-6.71-3.49-10.21-5.17-4.1-2-6.56-3.49-11.36-5.81-2.9-1.39-2.33-4.71-1-4.4,6.1,1.46,9.5,3.54,15.67,2.9A3.55,3.55,0,0,1,169.47,375.56Z" style="fill:#C53F3F"></path><polygon points="177.51 360.76 173.32 369.18 179.86 373.52 184.05 365.11 177.51 360.76" style="opacity:0.2"></polygon><path d="M168.32,376.2h0c-1.24-.32-3.4-1-3.85-2.07a1,1,0,0,1,.07-1,.56.56,0,0,1,.48-.31c1.09-.07,3.25,2.74,3.49,3.06a.2.2,0,0,1,0,.22A.17.17,0,0,1,168.32,376.2Zm-3.23-3H165a.2.2,0,0,0-.19.13.65.65,0,0,0-.05.63c.25.6,1.38,1.23,3.07,1.72C167,374.61,165.71,373.28,165.09,373.21Z" style="fill:#263238"></path><path d="M168.32,376.2a.19.19,0,0,1-.12-.07c-.68-.79-1.65-3.13-1.14-3.87.12-.17.36-.34.84-.17a1.34,1.34,0,0,1,.79.74c.56,1.17-.15,3.17-.18,3.25a.19.19,0,0,1-.14.12Zm-.73-3.8a.23.23,0,0,0-.23.07c-.3.45.28,2.2.91,3.14a4.4,4.4,0,0,0,.09-2.63,1.06,1.06,0,0,0-.58-.54A.93.93,0,0,0,167.59,372.4Z" style="fill:#263238"></path><path d="M256.6,179.41c-5.17,1.13-10.38,2.18-15.59,3.17l-15.52,3-.94.19-.68.14a7.73,7.73,0,0,1-.86.13,10.53,10.53,0,0,1-3.94-.23,9.36,9.36,0,0,1-3.77-1.95,10.94,10.94,0,0,1-2.35-2.78,16.21,16.21,0,0,1-1.91-5.22,29.86,29.86,0,0,1-.53-4.65,60,60,0,0,1,2.09-16.84l5.81.87c0,2.51.05,5.15.23,7.67a58.25,58.25,0,0,0,.84,7.36,21.3,21.3,0,0,0,.82,3.22,7.25,7.25,0,0,0,1.09,2.15c.16.18.28.24.29.19s-.13-.16-.22-.21-.11-.06,0-.11l.13,0,.07,0,.21-.07,1-.28c2.64-.77,5.24-1.46,7.85-2.11s5.21-1.28,7.82-1.89c5.22-1.21,10.43-2.31,15.7-3.29Z" style="fill:#803e3c"></path><polygon points="254.14 174.27 187.69 159.32 191.87 125.61 201.81 118.16 264.08 166.81 254.14 174.27" style="fill:#C53F3F"></polygon><polygon points="254.14 174.27 187.69 159.32 191.87 125.61 201.81 118.16 264.08 166.81 254.14 174.27" style="opacity:0.2"></polygon><polygon points="187.69 159.32 197.64 151.86 264.08 166.81 254.14 174.27 187.69 159.32" style="opacity:0.2"></polygon><path d="M249.15,136.47,211.45,128a.91.91,0,0,1-.69-1l1.77-14.27c.06-.43,1.11-1.31,1.54-1.22l37,9.1a.88.88,0,0,1,.69,1L250,135.86A.71.71,0,0,1,249.15,136.47Zm-36.73-9.86,36.14,8.12L250.14,122,214,113.89Z" style="fill:#263238"></path><g style="opacity:0.4"><path d="M249.15,136.47,211.45,128a.91.91,0,0,1-.69-1l1.77-14.27c.06-.43,1.11-1.31,1.54-1.22l37,9.1a.88.88,0,0,1,.69,1L250,135.86A.71.71,0,0,1,249.15,136.47Zm-36.73-9.86,36.14,8.12L250.14,122,214,113.89Z"></path></g><path d="M250,135.87l-37.71-8.48a.88.88,0,0,1-.68-1l1.77-14.27a.71.71,0,0,1,.87-.61L252,120a.89.89,0,0,1,.68,1l-1.77,14.27A.69.69,0,0,1,250,135.87ZM213.31,126l36.14,8.13L251,121.42l-36.15-8.13Z" style="fill:#263238"></path><polygon points="223.68 125.77 221.06 125.17 221.38 122.56 222.25 121.67 223.68 125.77" style="fill:#C53F3F"></polygon><polygon points="226.86 126.48 224.24 125.89 224.56 123.28 225.43 122.39 226.86 126.48" style="fill:#C53F3F"></polygon><polygon points="230.04 127.2 227.42 126.61 227.74 123.99 228.61 123.11 230.04 127.2" style="fill:#C53F3F"></polygon><polygon points="233.22 127.91 230.6 127.32 230.92 124.71 231.79 123.82 233.22 127.91" style="fill:#C53F3F"></polygon><polygon points="236.41 128.63 233.78 128.04 234.1 125.42 234.97 124.53 236.41 128.63" style="fill:#C53F3F"></polygon><polygon points="239.59 129.34 236.96 128.75 237.28 126.14 238.16 125.25 239.59 129.34" style="fill:#C53F3F"></polygon><polygon points="242.77 130.06 240.14 129.47 240.47 126.85 241.34 125.97 242.77 130.06" style="fill:#C53F3F"></polygon><g style="opacity:0.2"><polygon points="223.68 125.77 221.06 125.17 221.38 122.56 222.25 121.67 223.68 125.77"></polygon><polygon points="226.86 126.48 224.24 125.89 224.56 123.28 225.43 122.39 226.86 126.48"></polygon><polygon points="230.04 127.2 227.42 126.61 227.74 123.99 228.61 123.11 230.04 127.2"></polygon><polygon points="233.22 127.91 230.6 127.32 230.92 124.71 231.79 123.82 233.22 127.91"></polygon><polygon points="236.41 128.63 233.78 128.04 234.1 125.42 234.97 124.53 236.41 128.63"></polygon><polygon points="239.59 129.34 236.96 128.75 237.28 126.14 238.16 125.25 239.59 129.34"></polygon><polygon points="242.77 130.06 240.14 129.47 240.47 126.85 241.34 125.97 242.77 130.06"></polygon></g><polygon points="224.55 124.88 221.92 124.29 222.25 121.67 224.87 122.26 224.55 124.88" style="fill:#C53F3F"></polygon><polygon points="227.73 125.59 225.1 125 225.43 122.39 228.05 122.98 227.73 125.59" style="fill:#C53F3F"></polygon><polygon points="230.91 126.31 228.28 125.72 228.61 123.11 231.24 123.69 230.91 126.31" style="fill:#C53F3F"></polygon><polygon points="234.09 127.03 231.47 126.44 231.79 123.82 234.42 124.41 234.09 127.03" style="fill:#C53F3F"></polygon><polygon points="237.27 127.74 234.65 127.15 234.97 124.53 237.6 125.13 237.27 127.74" style="fill:#C53F3F"></polygon><polygon points="240.45 128.46 237.83 127.86 238.15 125.25 240.78 125.84 240.45 128.46" style="fill:#C53F3F"></polygon><polygon points="243.63 129.17 241.01 128.58 241.33 125.97 243.96 126.56 243.63 129.17" style="fill:#C53F3F"></polygon><polygon points="264.08 166.81 197.64 151.86 201.81 118.16 268.26 133.1 264.08 166.81" style="fill:#C53F3F"></polygon><polygon points="267.38 140.24 200.93 125.29 201.81 118.16 268.26 133.1 267.38 140.24" style="fill:#263238"></polygon><polygon points="267.38 140.24 200.93 125.29 201.81 118.16 268.26 133.1 267.38 140.24" style="fill:#fff;opacity:0.2"></polygon><polygon points="239.21 161.21 222.51 157.46 225.81 130.89 242.5 134.64 239.21 161.21" style="opacity:0.2"></polygon><ellipse cx="212.32" cy="140.47" rx="8.45" ry="9.35" transform="translate(-39.85 175.45) rotate(-41.39)" style="opacity:0.2"></ellipse><path d="M220.11,142.23a7,7,0,0,1-8.75,6,8.89,8.89,0,0,1-6.83-9.51,7,7,0,0,1,8.75-6A8.9,8.9,0,0,1,220.11,142.23Z" style="fill:#fff;opacity:0.7000000000000001"></path><path d="M220.11,142.23a7,7,0,0,1-8.75,6,8.89,8.89,0,0,1-6.83-9.51,7,7,0,0,1,8.75-6A8.9,8.9,0,0,1,220.11,142.23Z" style="opacity:0.2"></path><path d="M215.92,141.28a3.26,3.26,0,0,1-4,2.78,4.12,4.12,0,0,1-3.15-4.4,3.23,3.23,0,0,1,4-2.77A4.11,4.11,0,0,1,215.92,141.28Z" style="opacity:0.2"></path><path d="M261.73,151.59a7.92,7.92,0,0,1-9.87,6.77,10,10,0,0,1-7.7-10.73,7.92,7.92,0,0,1,9.87-6.77A10,10,0,0,1,261.73,151.59Z" style="opacity:0.2"></path><path d="M260.74,151.36a7,7,0,0,1-8.76,6,8.9,8.9,0,0,1-6.83-9.51,7,7,0,0,1,8.76-6A8.89,8.89,0,0,1,260.74,151.36Z" style="fill:#fff;opacity:0.7000000000000001"></path><path d="M260.74,151.36a7,7,0,0,1-8.76,6,8.9,8.9,0,0,1-6.83-9.51,7,7,0,0,1,8.76-6A8.89,8.89,0,0,1,260.74,151.36Z" style="opacity:0.2"></path><path d="M256.55,150.42a3.25,3.25,0,0,1-4.05,2.77,4.09,4.09,0,0,1-3.15-4.39,3.23,3.23,0,0,1,4-2.77A4.11,4.11,0,0,1,256.55,150.42Z" style="opacity:0.2"></path><polygon points="240.69 149.2 224 145.45 225.6 132.6 242.29 136.36 240.69 149.2" style="opacity:0.2"></polygon><polygon points="240.46 145.68 225.08 142.22 225.87 135.84 241.25 139.3 240.46 145.68" style="fill:#fff;opacity:0.7000000000000001"></polygon><polygon points="239.93 155.33 223.25 151.57 224 145.45 240.69 149.2 239.93 155.33" style="opacity:0.4"></polygon><path d="M230.36,141.32a1,1,0,0,1-1.31.9,1.33,1.33,0,0,1-1-1.42,1.05,1.05,0,0,1,1.31-.9A1.32,1.32,0,0,1,230.36,141.32Z" style="fill:#263238"></path><path d="M238,143a1.06,1.06,0,0,1-1.31.9,1.33,1.33,0,0,1-1-1.42,1.05,1.05,0,0,1,1.31-.9A1.33,1.33,0,0,1,238,143Z" style="fill:#263238"></path><polygon points="237.85 141.42 228.57 139.33 228.82 137.36 238.09 139.44 237.85 141.42" style="fill:#fff"></polygon><polygon points="235.84 152.19 227.87 150.4 228.14 148.25 236.11 150.04 235.84 152.19" style="fill:#fff;opacity:0.7000000000000001"></polygon><path d="M264.17,144.16l-1.78-.4a1.31,1.31,0,0,1-1-1.41l.12-1a1,1,0,0,1,1.3-.89l1.78.4a1.33,1.33,0,0,1,1,1.42l-.12,1A1,1,0,0,1,264.17,144.16Z" style="opacity:0.4"></path><path d="M204.79,130.81l-1.77-.4a1.32,1.32,0,0,1-1-1.41l.12-1a1,1,0,0,1,1.3-.89l1.78.4a1.32,1.32,0,0,1,1,1.41l-.12,1A1.06,1.06,0,0,1,204.79,130.81Z" style="opacity:0.4"></path><polygon points="257.89 135.41 211.07 124.88 211.34 122.65 258.17 133.18 257.89 135.41" style="fill:#fff;opacity:0.7000000000000001"></polygon><path d="M334,153.9l4.77-7.2L330,145.47s-3.57,6.17-.32,7.88Z" style="fill:#7f3e3b"></path><polygon points="339.07 138.8 331.18 140.3 330 145.47 338.77 146.7 339.07 138.8" style="fill:#7f3e3b"></polygon><path d="M282.23,174.94c5.32.7,10.89,1.3,16.27,1.67,2.69.19,5.38.28,8,.28a33.67,33.67,0,0,0,7-.66,7.06,7.06,0,0,0,1-.31,2.15,2.15,0,0,0,.61-.37,14,14,0,0,0,2.06-2.26,57.49,57.49,0,0,0,4.07-6.56c2.56-4.73,4.95-9.83,7.25-14.85l5.63,1.68a98.35,98.35,0,0,1-4.56,16.93,53,53,0,0,1-3.91,8.4,21.54,21.54,0,0,1-3.25,4.33,13.18,13.18,0,0,1-2.77,2.16,16.9,16.9,0,0,1-2.92,1.28,39,39,0,0,1-9.77,1.66c-3.07.2-6,.17-9,.08s-5.86-.3-8.76-.6-5.74-.62-8.72-1.13Z" style="fill:#803e3c"></path><path d="M247.76,166.5,247.24,182l-.32,9.06-11.56,1.84-4.26.68-2.9.45-.75.13-3.45.55c-2.46-7.53-1.48-23.1-1.48-23.1s1.51-.4,3.87-1l3.57-.86c1.33-.3,2.76-.64,4.25-1A115.19,115.19,0,0,1,247.76,166.5Z" style="fill:#263238"></path><path d="M235.36,192.87l-4.26.68c-.79-6.53-1.63-16.07-1.14-23.82,1.33-.3,2.76-.64,4.25-1C234.07,175.09,234.09,185.38,235.36,192.87Z" style="fill:#C53F3F"></path><path d="M227.45,194.13l-1.4.23-1,.15-1.1.17c-2.46-7.53-1.48-23.1-1.48-23.1s.5-.14,1.4-.36c.28-.08.61-.17,1-.25l1.5-.38C226.26,176.74,226.28,186.67,227.45,194.13Z" style="fill:#C53F3F"></path><g style="opacity:0.7000000000000001"><path d="M226.05,194.36l-1,.15c-1.34-7.2-1.32-17.46-1.18-23.29.28-.08.61-.17,1-.25C224.75,176.73,224.72,187.2,226.05,194.36Z" style="fill:#fff"></path></g><path d="M247.24,182l-.32,9.06-11.56,1.84-4.26.68-2.9.45c1.18-11,17.45-13.41,17.45-13.41Q246.52,181.28,247.24,182Z" style="opacity:0.2"></path><path d="M282.53,197.09q2.09-7.09,4.17-14.28c.81-2.81,1.63-5.62,2.45-8.46a87.57,87.57,0,0,0,11.71,1.3c1.44.06,2.87.09,4.31.08,1,0,1.95,0,2.92-.07l.75,0c1.16-.06,2.31-.14,3.46-.25.61,7.83-4,23.44-4,23.4s-1.56.24-4,.45c-1.08.09-2.32.16-3.68.2s-2.84,0-4.37,0A51,51,0,0,1,282.53,197.09Z" style="fill:#263238"></path><path d="M300.86,175.65c1.44.06,2.87.09,4.31.08-.8,6.59-2.24,16.19-4.57,23.69-1.36,0-2.84,0-4.37,0C297.87,193.32,300.31,183.26,300.86,175.65Z" style="fill:#C53F3F"></path><path d="M308.84,175.62l1.41-.09,1-.07c.36,0,.73-.05,1.09-.09.61,7.83-4,23.44-4,23.4s-.52.08-1.45.19c-.29,0-.62.08-1,.11s-1,.11-1.55.15C305.87,193.16,308.21,183.23,308.84,175.62Z" style="fill:#C53F3F"></path><g style="opacity:0.7000000000000001"><path d="M310.25,175.53l1-.07c-.4,7.39-2.85,17.71-4.38,23.5-.29,0-.62.08-1,.11C307.34,193.38,309.85,182.87,310.25,175.53Z" style="fill:#fff"></path></g><path d="M171.85,366l11.08,7.34s19.59-39.46,30.23-61.39c3.24-6.67,8.67-15.61,14.81-25,7.76-11.89,16.64-24.54,23.73-34.4,7.46-10.39,12.92-17.67,12.92-17.67l-25-11.67s-34,52.79-44,74.48C185.26,320.24,171.85,366,171.85,366Z" style="fill:#C53F3F"></path><g style="opacity:0.5"><path d="M171.85,366l11.08,7.34s19.59-39.46,30.23-61.39c3.24-6.67,8.67-15.61,14.81-25,7.76-11.89,16.64-24.54,23.73-34.4,7.46-10.39,12.92-17.67,12.92-17.67l-25-11.67s-34,52.79-44,74.48C185.26,320.24,171.85,366,171.85,366Z" style="fill:#fff"></path></g><path d="M228,287c7.76-11.89,16.64-24.54,23.73-34.4l-.52-6.78C242,250.91,231.51,273.72,228,287Z" style="opacity:0.2"></path><path d="M249.1,235.78s-4.82,67.61-5.11,90.59c-.32,25.15,11.44,74.43,11.44,74.43h14.34s-5.72-44.46-3.82-69.38c2.13-27.88,9.66-90.27,9.66-90.27Z" style="fill:#C53F3F"></path><g style="opacity:0.5"><path d="M249.1,235.78s-4.82,67.61-5.11,90.59c-.32,25.15,11.44,74.43,11.44,74.43h14.34s-5.72-44.46-3.82-69.38c2.13-27.88,9.66-90.27,9.66-90.27Z" style="fill:#fff"></path></g><path d="M285.2,246.53c.49,2.51.88,3.76.88,3.76-5.54,1.76-46.78-3.72-59.22-11.81.28-1.83.55-3.62.84-5.38,8.18-50.82,20.06-66.6,20.06-66.6s3.69-.24,8.25,0c.59,0,1.19.06,1.81.11s1.43.11,2.15.19a156,156,0,0,1,17.47,3.54c1.09.28,2.2.58,3.27.91l.3.09c5.31,1.61,9.85,3.52,9.85,3.52-3,7.19-4.67,15.54-5.68,23-.15,1.14-.3,2.26-.42,3.36-.28,2.44-.5,4.79-.69,7.05C282.44,228.06,284.07,240.7,285.2,246.53Z" style="fill:#263238"></path><path d="M281,171.31c-4.42,2.27-12,5.33-18.3,4-6-1.28-6.88-5.67-6.7-8.81l.54,0,1,.06.29,0c.72,0,1.43.11,2.15.19a156,156,0,0,1,17.47,3.54l.45.12c.47.12.95.24,1.43.39s.93.25,1.39.4Z" style="fill:#C53F3F"></path><polygon points="238.89 211.18 251.96 194.1 243.66 192.31 245.97 185.76 258.69 189.02 257.26 196.13 245.28 212.83 238.89 211.18" style="fill:#fff;opacity:0.7000000000000001"></polygon><polygon points="246.58 186.9 257.57 189.72 256.37 195.75 244.89 211.75 240.52 210.62 253.62 193.49 244.91 191.6 246.58 186.9" style="fill:#C53F3F"></polygon><polygon points="254.08 214.99 267.14 197.91 258.85 196.12 261.17 189.57 273.88 192.83 272.45 199.94 260.48 216.64 254.08 214.99" style="fill:#fff;opacity:0.7000000000000001"></polygon><polygon points="261.77 190.71 272.76 193.53 271.56 199.56 260.08 215.56 255.71 214.43 268.81 197.3 260.1 195.41 261.77 190.71" style="fill:#C53F3F"></polygon><path d="M286.08,250.29c-5.54,1.76-46.78-3.72-59.22-11.81q.18-1.2.36-2.37c.05-.33.11-.66.16-1,.1-.68.21-1.35.32-2,7.73,4,28.07,12.71,57.5,13.43.08.41.16.8.24,1.14s.14.67.21,1C285.91,249.73,286.08,250.29,286.08,250.29Z" style="fill:#C53F3F"></path><g style="opacity:0.7000000000000001"><path d="M279.32,170.82c-3.52,1.7-9.13,3.92-14.39,3.92a16.75,16.75,0,0,1-2.84-.24c-3.94-.71-5.18-4.9-5.54-8l1,.06c.36,2.81,1.46,6.41,4.73,7,5.2.94,11.49-1.26,15.63-3.13C278.36,170.55,278.84,170.67,279.32,170.82Z" style="fill:#fff"></path></g><g style="opacity:0.7000000000000001"><path d="M285.65,248.62c-1.13,0-2.25,0-3.37,0a130,130,0,0,1-55.06-12.56c.05-.33.11-.66.16-1a128.22,128.22,0,0,0,58.06,12.55C285.51,248,285.58,248.34,285.65,248.62Z" style="fill:#fff"></path></g><path d="M279.49,150.29c-2.18,5.4-5.26,15.47-2.05,20A17.65,17.65,0,0,1,263,172.94c-4.82-1.08-4.41-4.51-3-6.17,6.55-.23,7.28-4.91,7-9.5Z" style="fill:#7f3e3b"></path><path d="M274.4,153.14,267,157.27a19,19,0,0,1-.06,3.21c2.46.14,6.25-1.83,7-4.28A8.55,8.55,0,0,0,274.4,153.14Z" style="opacity:0.2"></path><path d="M293.61,141.33a3.54,3.54,0,0,0-.75-6.87A3.55,3.55,0,0,0,290,128a3.5,3.5,0,0,0,.88-2.31,3.56,3.56,0,0,0-3.56-3.56A3.49,3.49,0,0,0,285,123c0-.11,0-.21,0-.32a3.56,3.56,0,0,0-6.84-1.37,3.56,3.56,0,0,0-6.84,1.37.78.78,0,0,0,0,.16,3.55,3.55,0,0,0-5.63,4.22h0a3.56,3.56,0,0,0,0,7.11c1.66,0,10.15,13.45,12.76,16.47a3.62,3.62,0,0,0-.14.94,3.55,3.55,0,0,0,7.05.64,3.5,3.5,0,0,0,2,.6,3.56,3.56,0,0,0,3.56-3.56,3.49,3.49,0,0,0-.34-1.48,3.69,3.69,0,0,0,1.45.31,3.55,3.55,0,0,0,1.58-6.73Z" style="fill:#263238"></path><path d="M283.2,143.61c-2.85,7.22-4.16,11.59-9.1,14.12-7.45,3.81-15.43-2.63-14.78-10.58.58-7.15,5.15-17.75,13.3-18.25A10.7,10.7,0,0,1,283.2,143.61Z" style="fill:#7f3e3b"></path><path d="M271.37,141.91c-.19.6-.67,1-1.06.85s-.55-.73-.35-1.33.67-1,1.06-.84S271.57,141.31,271.37,141.91Z" style="fill:#263238"></path><path d="M264.6,139.63c-.19.6-.67,1-1.06.85s-.55-.73-.35-1.33.67-1,1.06-.85S264.8,139,264.6,139.63Z" style="fill:#263238"></path><path d="M266.66,140.65a21.48,21.48,0,0,1-4.52,4,3.74,3.74,0,0,0,2.69,1.44Z" style="fill:#630f0f"></path><path d="M267.29,149.44a6.31,6.31,0,0,1-.8-.21.18.18,0,0,1,.11-.35,4.94,4.94,0,0,0,4.48-.56.19.19,0,0,1,.26,0,.2.2,0,0,1,0,.27A5.19,5.19,0,0,1,267.29,149.44Z" style="fill:#263238"></path><path d="M274.18,140.42a.37.37,0,0,1-.29-.24,3,3,0,0,0-1.87-1.94.37.37,0,0,1-.27-.45.37.37,0,0,1,.45-.27,3.71,3.71,0,0,1,2.39,2.42.36.36,0,0,1-.23.47A.28.28,0,0,1,274.18,140.42Z" style="fill:#263238"></path><path d="M262.45,136.31a.3.3,0,0,1-.19-.1.37.37,0,0,1,0-.52,3.63,3.63,0,0,1,3.17-1.13.37.37,0,0,1,.3.43.38.38,0,0,1-.43.3,2.84,2.84,0,0,0-2.51.92A.34.34,0,0,1,262.45,136.31Z" style="fill:#263238"></path><path d="M268.53,130.1s7.79.46,12,5.31c0,0-2.87,8-2.43,12.87s5.12,3.13,6.64,0,6.22-12.6-2.69-17.68S268.53,130.1,268.53,130.1Z" style="fill:#263238"></path><path d="M275.92,141.27s6.73,2.9,7.44,3.65.23,2.69.23,2.69h-.75s.3-1.78-.16-2.16-7.75-3-7.75-3Z" style="fill:#fff"></path><path d="M284,150.68a7.29,7.29,0,0,1-4.78,2.93c-2.56.37-3.53-2-2.56-4.26.86-2,3.24-4.66,5.68-4A3.35,3.35,0,0,1,284,150.68Z" style="fill:#7f3e3b"></path><path d="M260.93,136.06l-.38,1.12.38.33-1.13,3.64a.65.65,0,0,0,.42.82l2.8.9a.65.65,0,0,0,.74-.25l1.93-2.8.85.28h0l.79.32.32,3.78a.64.64,0,0,0,.47.57l4.47,1.27a.75.75,0,0,0,.85-.35l2.46-4.43Zm7.33,3.71,6.16,2.09-.12.27-6-2Zm-6.65-2.26,3.83,1.46-.15.2-3.79-1.26Zm1.51,4.67-2.6-.91.07-.26,2.72.9Zm.5-.7-2.88-.95.11-.39,3,1Zm.55-.76L261,139.66l.12-.39,3.33,1.1Zm.56-.78-3.49-1.15.11-.39,3.64,1.19Zm3.53,2.64,5.09,1.67-.16.38L268.26,143Zm4.65,2.66-4.65-1.37v-.33l4.72,1.55Zm.65-1.44-5.3-1.74v-.43l5.46,1.79Zm.37-.83-5.67-1.87v-.43l5.84,1.91Z" style="fill:#fff"></path><path d="M285.18,197.87c-.15,1.14-.3,2.26-.42,3.36-.28,2.44-.5,4.79-.69,7.05-3.21-4-1.54-16-1.54-16A7.93,7.93,0,0,0,285.18,197.87Z" style="opacity:0.2"></path><polygon points="170.27 365.49 183.59 374.05 186.3 369.75 171.81 360.11 170.27 365.49" style="fill:#263238"></polygon><polygon points="253.72 401.11 270.61 401.11 270.56 396.06 252.93 395.04 253.72 401.11" style="fill:#263238"></polygon></g></svg>